<?xml version="1.0" encoding="UTF-8"?><svg id="Capa_1" xmlns="http://www.w3.org/2000/svg" viewBox="0 0 1775.55 737.49"><path d="m163.63,63.15c-23.38-.04-46.35,6.05-66.64,17.66-19.38-14.07-40.74-25.48-61.25-32.7C21.78,44.99,9.33,37.18.44,25.98l-.08,45.28c0,8.19,5.56,15.34,13.51,17.32,55.9,13.93,120.32,54.77,149.76,94.94,29.44-40.17,93.86-81.01,149.76-94.94,8.38-2.51,13.52-9.45,13.51-17.32l-.08-45.28c-8.88,11.2-21.34,19.01-35.29,22.13-20.51,7.22-41.88,18.63-61.25,32.7-20.29-11.61-43.26-17.7-66.64-17.66m85.5,73.13c-16.23,8.79-31.73,18.93-45.53,29.77,3.18,15.87,18.62,26.15,34.49,22.96,15.87-3.18,26.15-18.62,22.96-34.49-1.48-7.39-5.75-13.92-11.93-18.24m-125.47,29.77c-13.8-10.84-29.3-20.98-45.53-29.77-13.26,9.28-16.49,27.55-7.21,40.8,9.28,13.26,27.55,16.49,40.8,7.21,6.17-4.32,10.45-10.85,11.93-18.24m40.67,113.17c-37.01,66.7,13.03,171.45,111.77,233.96,7.19,4.55,14.54,8.81,22,12.74-18.33-31.7-14.87-99.23,7.96-155.37,27.7-67.46,21.34-134.28-15.28-160.49-13.53,15.44-33.01,24.36-53.54,24.51l-72.9,44.64m95.67,241.57c-6.03-3.84-11.94-7.87-17.72-12.07-97.66-71.01-138.91-177.26-92.13-237.32l-60.13-36.82c-20.88-.15-40.65-9.37-54.19-25.26-69.77,54.58-32.84,206.46,82.47,339.22,14.47,16.66,29.8,32.55,45.76,47.44.99,25.27,7.2,53.86,18.35,84.51,33.22-52.36,60.04-107.34,78-159.85m-33.9-299.59c31.26,5.56,61.11-15.26,66.67-46.52,3.36-18.86-2.9-38.16-16.69-51.45-3.65,1.55-7.3,3.19-10.96,4.91,6.7,5.78,11.59,13.37,14.08,21.86,7.12,24.32-6.82,49.8-31.13,56.92-24.32,7.12-49.8-6.82-56.92-31.13-13.58,16.86-23.22,33.3-27.93,47.62-4.78-14.44-14.4-30.82-27.93-47.62-2.49,8.49-7.38,16.08-14.08,21.86-19.19,16.54-48.16,14.39-64.7-4.81-16.54-19.19-14.39-48.16,4.81-64.7-3.62-1.71-7.28-3.34-10.96-4.91-22.85,22.04-23.51,58.43-1.48,81.28,13.3,13.79,32.59,20.05,51.45,16.69l62.89,40.79,62.89-40.79h-.01Z" style="fill-rule:evenodd;"/><g><path d="m226.52,221.04c31.26,5.56,61.11-15.26,66.67-46.52,3.36-18.86-2.9-38.16-16.69-51.45m-46.23-42.26c-20.29-11.61-43.26-17.7-66.64-17.66m149.75,25.43c-55.9,13.93-120.32,54.77-149.76,94.94m27.94-7.9c7.12,24.32,32.61,38.25,56.92,31.13s38.25-32.61,31.13-56.92c-2.49-8.49-7.38-16.08-14.08-21.86m-101.9,133.86l62.89-40.79m-62.24,58.21l73.7-45.13m-87.83,37.28l-60.88-37.28m147.96.46c20.53-.15,40.01-9.07,53.54-24.51m-254.94-.75c13.54,15.89,33.32,25.11,54.19,25.26m74.31,44.64c-37.01,66.7,13.03,171.45,111.77,233.96,7.19,4.55,14.54,8.81,22,12.74" style="fill:none; stroke:#000; stroke-linecap:round; stroke-linejoin:round; stroke-width:.71px;"/><path d="m306.05,370.56c-22.83,56.14-26.29,123.67-7.96,155.37m7.96-155.37c27.7-67.46,21.34-134.28-15.28-160.49m-140.63,61.33c-46.78,60.06-5.53,166.31,92.13,237.32,5.78,4.2,11.7,8.23,17.72,12.07M35.83,209.32c-69.77,54.58-32.84,206.46,82.47,339.22,14.47,16.66,29.8,32.55,45.76,47.44m0,0c.99,25.27,7.2,53.86,18.35,84.51m78-159.85c-17.96,52.51-44.78,107.49-78,159.85M326.89,71.26l-.08-45.28m-35.29,22.13c-20.51,7.22-41.88,18.63-61.25,32.7m61.25-32.7c13.95-3.12,26.41-10.93,35.29-22.13m-163.18,37.17c-23.38-.04-46.35,6.05-66.64,17.66m-83.12,7.77c55.9,13.93,120.32,54.77,149.76,94.94M.36,71.26l.08-45.28m35.29,22.13c20.51,7.22,41.88,18.63,61.25,32.7" style="fill:none; stroke:#000; stroke-linecap:round; stroke-linejoin:round; stroke-width:.71px;"/><path d="m.44,25.98c8.88,11.2,21.34,19.01,35.29,22.13m167.87,117.94c3.18,15.87,18.62,26.15,34.49,22.96,15.87-3.18,26.15-18.62,22.96-34.49-1.48-7.39-5.75-13.92-11.93-18.24m27.37-13.21c-3.65,1.55-7.3,3.19-10.96,4.91" style="fill:none; stroke:#000; stroke-linecap:round; stroke-linejoin:round; stroke-width:.71px;"/><path d="m249.12,136.28c-16.23,8.79-31.73,18.93-45.53,29.77m-12.03,9.57c-13.58,16.86-23.22,33.3-27.93,47.62M50.76,123.07c-22.85,22.04-23.51,58.43-1.48,81.28,13.3,13.79,32.59,20.05,51.45,16.69m-39.01-93.07c-19.19,16.54-21.35,45.51-4.81,64.7s45.51,21.35,64.7,4.81c6.7-5.78,11.59-13.37,14.08-21.86m27.94,86.21l-62.89-40.79m-22.61-84.76c-13.26,9.28-16.49,27.55-7.21,40.8,9.28,13.26,27.55,16.49,40.8,7.21,6.17-4.32,10.45-10.85,11.93-18.24" style="fill:none; stroke:#000; stroke-linecap:round; stroke-linejoin:round; stroke-width:.71px;"/><path d="m50.76,123.07c3.65,1.55,7.3,3.19,10.96,4.91m16.41,8.3c16.23,8.79,31.73,18.93,45.53,29.77m12.03,9.57c13.53,16.8,23.15,33.18,27.88,47.47m149.81-134.51c7.95-1.98,13.52-9.13,13.51-17.32M.36,71.26c0,8.19,5.56,15.34,13.51,17.32" style="fill:none; stroke:#000; stroke-linecap:round; stroke-linejoin:round; stroke-width:.71px;"/></g><g style="isolation:isolate;"><g style="isolation:isolate;"><path d="m550.87,27h46.91v7.12h-3.31c-4.92,0-8.06.38-9.42,1.14-1.36.76-2.04,1.96-2.04,3.61,0,1.14.47,2.94,1.42,5.41l.57,1.8,28.59,89.17,25.09-82.37c-2.93-9.35-5.16-14.82-6.71-16.4-1.55-1.58-4.63-2.37-9.24-2.37h-8.53v-7.12h58.59v7.12h-6.07c-5.31,0-8.76.43-10.34,1.28-1.58.85-2.37,2.14-2.37,3.85,0,1.33.19,2.56.57,3.7l29.09,92.31,23.95-79.87c.95-3.1,1.42-6.08,1.42-8.93,0-4.24-.96-7.36-2.89-9.35s-4.82-2.99-8.67-2.99h-4.36v-7.12h44.06v7.12c-3.87.51-6.94,1.44-9.22,2.8-2.28,1.36-4.26,3.31-5.94,5.84-1.68,2.53-3.37,6.74-5.08,12.63l-34.61,115.38h-6.76l-32.3-103.22-30.82,103.22h-7.11l-39.55-124.69c-1.58-4.88-3.37-8.09-5.37-9.64-2-1.55-5.18-2.33-9.55-2.33v-7.12Z" style="fill:#d30000;"/><path d="m751.06,27h111.3l2.66,47.39h-6.36c-2.53-14.94-6.53-25.39-12-31.34-5.47-5.95-12.6-8.93-21.38-8.93h-27.5c-2.21,0-3.89.6-5.03,1.8-1.14,1.2-1.71,3.04-1.71,5.51v50.05h12.03c6.44,0,11.66-2.31,15.67-6.93,4.01-4.62,6.17-11.71,6.49-21.27h6.55v65.05h-6.55c-.32-10.76-2.51-18.47-6.58-23.12s-9.61-6.98-16.62-6.98h-10.98v55.84c0,2.03.68,3.58,2.04,4.65,1.36,1.08,3.62,1.62,6.78,1.62h21.72c23.58,0,37.18-15.07,40.78-45.2h6.84l-2.37,52.33h-115.76v-7.12h9.59c3.73,0,6.36-.65,7.88-1.95,1.52-1.3,2.28-3.18,2.28-5.65V41.43c0-2.47-.67-4.3-1.99-5.51-1.33-1.2-3.42-1.8-6.27-1.8h-11.49v-7.12Z" style="fill:#d30000;"/><path d="m884.86,27h65.15v7.12h-15.57c-2.47,0-4.29.65-5.46,1.95-1.17,1.3-1.76,3.34-1.76,6.12v110.83c0,2.66.74,4.54,2.23,5.65,1.49,1.11,4.47,1.66,8.96,1.66h19.73c10.5,0,19.08-3.5,25.75-10.49,6.67-7,11.52-19.14,14.56-36.42h6.65l-3.23,54.04h-117v-7.12h11.49c3.92,0,6.68-.74,8.26-2.23,1.58-1.49,2.37-3.88,2.37-7.17V41.24c0-2.34-.67-4.11-1.99-5.32-1.33-1.2-3.29-1.8-5.89-1.8h-14.25v-7.12Z" style="fill:#d30000;"/><path d="m1121.04,37.92l6.55-13.58h5.98l2.47,56.5h-6.36c-4.18-15.89-9.43-27.6-15.76-35.14-7.85-9.43-17.22-14.15-28.11-14.15-11.78,0-21.37,5.26-28.77,15.76-7.41,10.51-11.11,28.3-11.11,53.37,0,21.08,4.24,37.16,12.73,48.24,7.22,9.37,17.35,14.05,30.39,14.05,11.4,0,20.95-3.66,28.68-10.97,7.72-7.31,12.76-18.34,15.1-33.1h6.74c-1.96,16.71-7.69,29.57-17.19,38.56-9.5,8.99-21.46,13.49-35.9,13.49-11.71,0-22.46-2.94-32.24-8.83s-17.6-14.35-23.46-25.4c-5.86-11.05-8.78-23.16-8.78-36.32,0-13.99,3.02-27.13,9.07-39.41,6.05-12.28,13.79-21.51,23.22-27.68,9.43-6.17,19.59-9.26,30.48-9.26,6.08,0,11.97,1.04,17.66,3.13,5.7,2.09,11.9,5.67,18.61,10.73Z" style="fill:#d30000;"/><path d="m1223.42,24.06c11.84,0,22.93,3.12,33.29,9.35,10.35,6.24,18.45,14.94,24.31,26.12,5.86,11.17,8.79,23.76,8.79,37.75s-2.94,26.62-8.83,37.89c-5.89,11.27-13.98,20.05-24.26,26.35-10.29,6.3-21.19,9.45-32.72,9.45s-21.84-3.09-31.72-9.26c-9.88-6.17-17.81-15-23.79-26.5-5.98-11.49-8.97-24.23-8.97-38.22s2.9-26.26,8.69-37.37c5.79-11.11,13.72-19.81,23.79-26.12,10.07-6.3,20.54-9.45,31.43-9.45Zm1.52,7.31c-12.35,0-22.35,5.13-30.01,15.38-7.66,10.26-11.49,26.97-11.49,50.14,0,25.13,3.92,42.51,11.78,52.14,7.85,9.62,17.57,14.44,29.15,14.44,8.1,0,15.23-2.18,21.37-6.55,6.14-4.37,11.03-11.3,14.67-20.8,3.64-9.5,5.46-21.97,5.46-37.42,0-16.84-1.71-29.99-5.13-39.46-3.42-9.46-8.29-16.48-14.62-21.03-6.33-4.56-13.39-6.84-21.18-6.84Z" style="fill:#d30000;"/><path d="m1303.47,27h46.76l41.98,110.92,38.63-110.92h47.83v7.12h-11.68c-4.12,0-6.88.6-8.31,1.8-1.42,1.2-2.14,3.29-2.14,6.27v111.21c0,2.22.85,3.93,2.56,5.13,1.71,1.2,4.65,1.8,8.83,1.8h10.73v7.12h-64.29v-7.12h12.02c3.43,0,5.98-.65,7.63-1.95,1.65-1.3,2.48-2.96,2.48-4.99V34.12l-46.44,133.33h-6.4l-50.01-132.76v102.09c0,6.08.76,10.62,2.28,13.63s3.69,5.32,6.5,6.93c2.82,1.62,7.49,2.61,14.01,2.99v7.12h-52.99v-7.12c8.67-.57,14.56-2.44,17.66-5.6,3.1-3.17,4.65-8.77,4.65-16.81V41.05c0-2.41-.73-4.16-2.18-5.27-1.46-1.11-4.18-1.66-8.17-1.66h-11.97v-7.12Z" style="fill:#d30000;"/><path d="m1496.54,27h111.3l2.66,47.39h-6.36c-2.53-14.94-6.53-25.39-12-31.34-5.47-5.95-12.6-8.93-21.38-8.93h-27.5c-2.21,0-3.89.6-5.03,1.8-1.14,1.2-1.71,3.04-1.71,5.51v50.05h12.03c6.44,0,11.67-2.31,15.67-6.93,4.01-4.62,6.17-11.71,6.49-21.27h6.55v65.05h-6.55c-.32-10.76-2.51-18.47-6.58-23.12s-9.61-6.98-16.62-6.98h-10.98v55.84c0,2.03.68,3.58,2.04,4.65,1.36,1.08,3.62,1.62,6.78,1.62h21.72c23.58,0,37.18-15.07,40.78-45.2h6.84l-2.38,52.33h-115.76v-7.12h9.59c3.73,0,6.36-.65,7.88-1.95,1.52-1.3,2.28-3.18,2.28-5.65V41.43c0-2.47-.67-4.3-1.99-5.51-1.33-1.2-3.42-1.8-6.27-1.8h-11.49v-7.12Z" style="fill:#d30000;"/><path d="m1630.92,27h72.55c10.76,0,19.91,1.9,27.45,5.7,9.37,4.81,17.33,12.82,23.88,24.03s9.83,24.47,9.83,39.79c0,12.66-1.96,24.06-5.89,34.19-2.98,7.79-7.55,14.59-13.72,20.42-6.17,5.83-13.69,10.19-22.55,13.11-6.65,2.15-15.51,3.23-26.59,3.23h-64.96v-7.12h13.29c3.36,0,5.68-.54,6.98-1.62,1.3-1.08,1.95-2.75,1.95-5.03V40.58c0-1.96-.7-3.53-2.09-4.7-1.39-1.17-3.32-1.76-5.79-1.76h-14.34v-7.12Zm50.9,7.12c-2.85,0-4.95.6-6.31,1.8-1.36,1.2-2.04,3.01-2.04,5.41v112.06c0,2.28.79,4,2.37,5.18,1.58,1.17,4.27,1.76,8.07,1.76h11.97c10.7,0,20.07-2.75,28.11-8.26,5.25-3.67,9.24-8.83,11.97-15.48,3.74-8.99,5.6-21.4,5.6-37.23,0-23.42-4.08-40.58-12.25-51.47-6.96-9.18-17.47-13.77-31.53-13.77h-15.96Z" style="fill:#d30000;"/></g><g style="isolation:isolate;"><path d="m607.44,282.42h111.3l2.66,47.39h-6.36c-2.53-14.94-6.53-25.39-12-31.34-5.47-5.95-12.6-8.93-21.38-8.93h-27.5c-2.21,0-3.89.6-5.03,1.8-1.14,1.2-1.71,3.04-1.71,5.51v50.05h12.03c6.44,0,11.66-2.31,15.67-6.93,4.01-4.62,6.17-11.71,6.49-21.27h6.55v65.05h-6.55c-.32-10.76-2.51-18.47-6.58-23.12s-9.61-6.98-16.62-6.98h-10.98v55.84c0,2.03.68,3.58,2.04,4.65,1.36,1.08,3.62,1.62,6.78,1.62h21.72c23.58,0,37.18-15.07,40.78-45.2h6.84l-2.37,52.33h-115.76v-7.12h9.59c3.73,0,6.36-.65,7.88-1.95,1.52-1.3,2.28-3.18,2.28-5.65v-111.3c0-2.47-.67-4.3-1.99-5.51-1.33-1.2-3.42-1.8-6.27-1.8h-11.49v-7.12Z" style="fill:#d30000;"/><path d="m743.15,282.42h33.52l84.71,110.35v-79.87c0-8.04-1.84-13.99-5.51-17.85-3.36-3.54-8.36-5.38-15-5.51v-7.12h49.19v7.12c-5.03,0-8.78.7-11.26,2.09-2.48,1.39-4.64,3.93-6.49,7.6-1.84,3.67-2.77,7.69-2.77,12.06v111.58h-8.93l-87.65-114.89v84.77c0,7.67,1.93,13.38,5.79,17.15,3.86,3.77,9.84,5.72,17.95,5.84v7.12h-53.56v-7.12c6.71-.25,12.03-2.45,15.95-6.59,3.92-4.14,5.89-9.21,5.89-15.22v-95.12l-1.67-1.83c-3.16-3.45-5.41-5.49-6.73-6.12-1.83-.89-4.2-1.33-7.1-1.33h-6.34v-7.12Z" style="fill:#d30000;"/><path d="m1002.98,293.52l7.78-14.04h6.36l3.51,56.03h-6.17c-4.74-16.11-10.34-27.77-16.79-34.97-8.22-9.16-17.64-13.74-28.27-13.74-8.16,0-15.46,2.31-21.91,6.93-6.45,4.62-11.4,11.55-14.85,20.78-3.45,9.24-5.17,22.24-5.17,39s1.72,28.97,5.17,38.15,8.2,15.93,14.27,20.26c6.07,4.33,13.18,6.5,21.34,6.5,11.06,0,19.62-3.1,25.66-9.31,6.04-6.2,9.06-14.21,9.06-24.03v-13.2c0-2.09-.81-3.7-2.42-4.84-1.61-1.14-4.26-1.71-7.93-1.71h-11.87v-6.65h58.88v6.65h-7.98c-3.55,0-6.08.62-7.6,1.85s-2.28,3.02-2.28,5.37v53.66h-6.27c-2.28-8.36-4.65-16.37-7.12-24.03-4.75,7.79-10.4,13.63-16.95,17.52s-13.98,5.84-22.27,5.84c-11.84,0-22.81-3.04-32.91-9.12-10.1-6.08-18.08-14.64-23.93-25.69-5.86-11.05-8.78-23.54-8.78-37.46s2.94-26.53,8.83-37.61c5.89-11.08,13.94-19.88,24.17-26.4,10.23-6.52,20.56-9.78,31.01-9.78,5.95,0,11.63,1,17.05,3.01,5.41,2.01,11.54,5.68,18.38,11.03Z" style="fill:#d30000;"/><path d="m1051.03,282.42h65.15v7.12h-15.58c-2.47,0-4.29.65-5.46,1.95-1.17,1.3-1.76,3.34-1.76,6.12v110.83c0,2.66.74,4.54,2.23,5.65,1.49,1.11,4.47,1.66,8.96,1.66h19.73c10.5,0,19.08-3.5,25.75-10.49,6.67-7,11.52-19.14,14.56-36.42h6.65l-3.23,54.04h-117v-7.12h11.49c3.92,0,6.68-.74,8.26-2.23,1.58-1.49,2.38-3.88,2.38-7.17v-109.69c0-2.34-.67-4.11-2-5.32-1.33-1.2-3.29-1.8-5.89-1.8h-14.25v-7.12Z" style="fill:#d30000;"/><path d="m1181.89,282.42h64.77v7.12h-11.11c-4.94,0-8.06.62-9.35,1.85-1.3,1.23-1.95,3.85-1.95,7.83v106.36c0,4.24.57,6.9,1.71,7.98,1.52,1.46,4.27,2.18,8.26,2.18h12.44v7.12h-64.77v-7.12h12.25c4.3,0,7.09-.63,8.36-1.9,1.27-1.27,1.9-4.02,1.9-8.26v-106.36c0-4.05-.57-6.55-1.71-7.5-1.77-1.46-5.03-2.18-9.78-2.18h-11.02v-7.12Z" style="fill:#d30000;"/><path d="m1343.81,293.06l8.55-12.25h6.93l.57,51.19h-6.27c-3.93-15.7-9.73-27.16-17.43-34.38-7.69-7.22-16.54-10.83-26.54-10.83-8.36,0-15.2,2.5-20.51,7.51-5.32,5.01-7.98,11.12-7.98,18.34,0,4.5,1.01,8.44,3.04,11.83,2.02,3.39,5.04,6.15,9.06,8.27,4.02,2.12,11.6,4.38,22.75,6.78,15.64,3.4,26.61,6.84,32.91,10.33,6.3,3.48,11,7.87,14.1,13.15,3.1,5.29,4.65,11.48,4.65,18.57,0,12.66-4.26,23.16-12.77,31.48-8.52,8.33-19.52,12.49-33,12.49-14.5,0-27.1-4.68-37.8-14.05l-10.73,13.1h-6.84v-54.42h6.84c2.66,15,8.61,26.84,17.85,35.52,9.24,8.67,19.66,13.01,31.24,13.01,9.37,0,17.01-2.77,22.93-8.31,5.92-5.54,8.88-12.27,8.88-20.18,0-4.5-1.11-8.44-3.32-11.82-2.22-3.39-5.73-6.24-10.54-8.55-4.81-2.31-14.28-5.11-28.39-8.41-15.51-3.67-26.08-7.79-31.72-12.34-7.92-6.46-11.87-15.61-11.87-27.45s3.94-22.46,11.82-30.34c7.88-7.88,17.96-11.82,30.25-11.82,5.89,0,11.49,1.04,16.81,3.13,5.32,2.09,10.83,5.57,16.52,10.45Z" style="fill:#d30000;"/><path d="m1385.5,282.42h60.02v7.12h-11.02c-3.86,0-6.38.68-7.55,2.04-1.17,1.36-1.76,4.67-1.76,9.92v43.3h64.2v-43.3c0-5.44-.55-8.8-1.66-10.07-1.11-1.27-3.72-1.9-7.83-1.9h-10.26v-7.12h59.64v7.12h-10.92c-2.72,0-4.64.35-5.74,1.04-1.11.7-2.01,1.9-2.71,3.61-.38,1.08-.57,3.89-.57,8.45v101.04c0,4.88.41,7.82,1.23,8.83,1.65,2.15,4.65,3.23,9.02,3.23h9.69v7.12h-59.64v-7.12h10.26c4.05,0,6.8-1.11,8.26-3.32.82-1.2,1.23-4.37,1.23-9.5v-48.81h-64.2v49.57c0,4.94.38,7.91,1.14,8.93,1.58,2.09,4.3,3.13,8.17,3.13h11.02v7.12h-60.02v-7.12h11.49c2.03,0,3.64-.41,4.84-1.24,1.2-.82,2.09-1.99,2.66-3.51.32-1.01.47-3.7.47-8.07v-101.42c0-5.25-.59-8.56-1.76-9.92-1.17-1.36-3.72-2.04-7.64-2.04h-10.07v-7.12Z" style="fill:#d30000;"/></g><g style="isolation:isolate;"><path d="m607.3,537.4h73.22c14.37,0,25.37,3.16,33,9.49,7.63,6.33,11.44,14.26,11.44,23.81,0,7.97-2.66,14.74-7.98,20.3-5.32,5.57-13.33,9.96-24.03,13.19,13.23,2.79,23.16,7.18,29.77,13.16,6.62,5.99,9.92,13.54,9.92,22.67,0,6.97-1.88,13.15-5.65,18.54-3.77,5.39-10.04,9.95-18.8,13.69-8.77,3.74-18.72,5.61-29.87,5.61h-71.03v-7.12h11.59c3.48,0,6.03-.57,7.65-1.71,1.61-1.14,2.42-2.44,2.42-3.89v-112.53c0-2.66-.79-4.67-2.37-6.03-1.58-1.36-3.89-2.04-6.93-2.04h-12.35v-7.12Zm41.97,64.48h26.59c8.17,0,14.67-2.4,19.52-7.21,4.84-4.8,7.27-12.67,7.27-23.61,0-6.76-1.16-12.04-3.47-15.83-2.31-3.79-5.67-6.56-10.07-8.3-4.4-1.74-12.01-2.61-22.84-2.61-7.66,0-12.41.55-14.25,1.66-1.84,1.11-2.75,3.05-2.75,5.83v50.06Zm0,7.12v54.13c0,2.53.74,4.43,2.23,5.7,1.49,1.27,4.16,1.9,8.02,1.9h17c11.27,0,19.59-2.48,24.98-7.46,5.38-4.97,8.07-12.71,8.07-23.22,0-9.62-2.79-17.2-8.36-22.74-5.57-5.54-13.26-8.31-23.08-8.31h-28.87Z" style="fill:#d30000;"/><path d="m751.27,537.4h111.3l2.66,47.39h-6.36c-2.53-14.94-6.53-25.39-12-31.34-5.47-5.95-12.6-8.93-21.38-8.93h-27.5c-2.21,0-3.89.6-5.03,1.8-1.14,1.2-1.71,3.04-1.71,5.51v50.05h12.03c6.44,0,11.66-2.31,15.67-6.93,4.01-4.62,6.17-11.71,6.49-21.27h6.55v65.05h-6.55c-.32-10.76-2.51-18.47-6.58-23.12s-9.61-6.98-16.62-6.98h-10.98v55.84c0,2.03.68,3.58,2.04,4.65,1.36,1.08,3.62,1.62,6.78,1.62h21.72c23.58,0,37.18-15.07,40.78-45.2h6.84l-2.37,52.33h-115.76v-7.12h9.59c3.73,0,6.36-.65,7.88-1.95,1.52-1.3,2.28-3.18,2.28-5.65v-111.3c0-2.47-.67-4.3-1.99-5.51-1.33-1.2-3.42-1.8-6.27-1.8h-11.49v-7.12Z" style="fill:#d30000;"/><path d="m883.93,537.4h72.55c14.05,0,24.96,3.2,32.72,9.59,7.75,6.4,11.63,14.78,11.63,25.17,0,6.21-1.54,11.73-4.61,16.57-3.07,4.84-7.5,8.71-13.29,11.58-5.79,2.88-14.89,4.96-27.3,6.22,9.03,2.47,15.25,4.89,18.66,7.26,3.41,2.37,6.14,5.45,8.19,9.21,2.05,3.77,4.42,11.44,7.11,23.03,1.92,8.29,3.96,13.96,6.11,17,1.65,2.34,3.42,3.51,5.32,3.51s3.78-1.44,5.46-4.32c1.68-2.88,2.71-7.96,3.09-15.24h6.46c-1.2,21.53-9.15,32.29-23.84,32.29-4.62,0-8.63-1.17-12.01-3.51-3.39-2.34-5.94-5.79-7.64-10.35-1.33-3.42-2.82-12.38-4.46-26.88-.95-8.42-2.45-14.4-4.51-17.95-2.06-3.54-5.27-6.39-9.64-8.55-4.37-2.15-9.59-3.23-15.67-3.23h-11.49v55.17c0,2.34.6,3.99,1.8,4.94,1.52,1.2,3.89,1.8,7.12,1.8h13.48v7.12h-65.24v-7.12h13.77c3.04,0,5.27-.6,6.69-1.8,1.42-1.2,2.14-2.85,2.14-4.94v-112.25c0-2.41-.73-4.21-2.18-5.41-1.46-1.2-3.67-1.8-6.65-1.8h-13.77v-7.12Zm42.83,64.58h16.62c11.14,0,19.86-2.1,26.16-6.3,6.3-4.2,9.45-11.68,9.45-22.42,0-7.4-1.19-13.24-3.56-17.54-2.38-4.3-5.49-7.24-9.35-8.82-3.86-1.58-11.46-2.37-22.79-2.37-7.47,0-12.09.52-13.87,1.57s-2.66,2.83-2.66,5.36v50.53Z" style="fill:#d30000;"/><path d="m1027.42,537.4h33.52l84.71,110.35v-79.87c0-8.04-1.84-13.99-5.51-17.85-3.36-3.54-8.36-5.38-15-5.51v-7.12h49.19v7.12c-5.03,0-8.78.7-11.26,2.09-2.48,1.39-4.64,3.93-6.49,7.6-1.84,3.67-2.77,7.69-2.77,12.06v111.58h-8.93l-87.65-114.89v84.77c0,7.67,1.93,13.38,5.79,17.15,3.86,3.77,9.84,5.72,17.95,5.84v7.12h-53.56v-7.12c6.71-.25,12.03-2.45,15.95-6.59,3.92-4.14,5.89-9.21,5.89-15.22v-95.12l-1.67-1.83c-3.16-3.45-5.41-5.49-6.73-6.12-1.83-.89-4.2-1.33-7.1-1.33h-6.34v-7.12Z" style="fill:#d30000;"/><path d="m1245.91,534.46h6.36l50.37,128.49c2.03,5.19,6.17,7.79,12.44,7.79h4.37v7.12h-56.03v-7.12h4.46c5.82,0,9.94-.63,12.35-1.9,1.65-.89,2.47-2.25,2.47-4.08,0-1.08-.22-2.21-.67-3.42l-11.62-29.82h-55.55l-6.52,17.09c-1.71,4.56-2.56,8.17-2.56,10.83,0,3.1,1.44,5.76,4.32,7.98,2.88,2.22,7.08,3.32,12.58,3.32h4.75v7.12h-50.9v-7.12c5.44,0,9.75-1.19,12.91-3.56s6.08-6.88,8.74-13.53l47.74-119.18Zm-2.77,27.07l-25.22,62.58h49.6l-24.38-62.58Z" style="fill:#d30000;"/><path d="m1324.48,537.4h65.15v7.12h-15.57c-2.47,0-4.29.65-5.46,1.95-1.17,1.3-1.76,3.34-1.76,6.12v110.83c0,2.66.74,4.54,2.23,5.65,1.49,1.11,4.47,1.66,8.96,1.66h19.73c10.5,0,19.08-3.5,25.75-10.49,6.67-7,11.52-19.14,14.56-36.42h6.65l-3.23,54.04h-117v-7.12h11.49c3.92,0,6.68-.74,8.26-2.23,1.58-1.49,2.37-3.88,2.37-7.17v-109.69c0-2.34-.67-4.11-1.99-5.32-1.33-1.2-3.29-1.8-5.89-1.8h-14.25v-7.12Z" style="fill:#d30000;"/></g></g><path d="m437.85,32.37h17.21v648.12h-17.21V32.37Z" style="fill:#d30000;"/><path d="m437.85,32.37v648.12m0-648.12h17.21m0,0v648.12m0,0h-17.21" style="fill:none; stroke:#d30000; stroke-linecap:round; stroke-linejoin:round; stroke-width:.71px;"/></svg>