<?xml version="1.0" standalone="no"?>
<!DOCTYPE svg PUBLIC "-//W3C//DTD SVG 20010904//EN"
 "http://www.w3.org/TR/2001/REC-SVG-20010904/DTD/svg10.dtd">
<svg version="1.0" xmlns="http://www.w3.org/2000/svg"
 width="605.000000pt" height="612.000000pt" viewBox="0 0 605.000000 612.000000"
 preserveAspectRatio="xMidYMid meet">

<g transform="translate(0.000000,612.000000) scale(0.100000,-0.100000)"
fill="#000000" stroke="none">
<path d="M2953 5648 c6 -223 4 -198 18 -198 7 0 9 50 7 155 -2 85 -1 155 2
155 3 0 44 -67 90 -150 76 -134 109 -175 111 -137 0 6 3 77 5 157 3 80 6 159
7 175 1 21 -3 30 -13 30 -13 0 -15 -24 -18 -142 -1 -79 -6 -143 -11 -143 -12
0 -55 68 -118 186 -81 153 -86 147 -80 -88z"/>
<path d="M3061 5308 c-5 -13 -25 -113 -45 -223 -38 -209 -44 -225 -93 -225
-64 0 -331 -78 -543 -159 -74 -28 -404 -214 -460 -259 -66 -53 -94 -85 -185
-207 -101 -137 -148 -216 -223 -381 -85 -186 -109 -257 -153 -464 -22 -101
-45 -190 -50 -196 -10 -13 -49 -21 -289 -59 -85 -13 -165 -22 -176 -19 -31 8
-40 -14 -17 -38 21 -20 146 -49 273 -63 118 -12 191 -27 205 -42 10 -9 15 -35
15 -73 0 -76 32 -262 65 -375 61 -211 143 -351 337 -576 148 -172 202 -222
328 -305 107 -69 321 -177 377 -189 17 -3 99 -33 182 -65 123 -48 171 -62 260
-74 60 -7 114 -17 120 -21 6 -3 11 -18 11 -34 0 -55 62 -397 76 -418 15 -24
38 -30 49 -13 11 18 65 251 80 346 9 52 18 100 21 109 7 18 20 21 151 34 78 8
129 21 220 55 65 24 136 49 158 56 63 20 292 137 382 196 75 49 178 138 276
239 187 195 405 680 438 975 6 52 16 101 23 108 6 6 63 21 126 32 113 20 281
55 330 69 31 8 40 49 14 68 -10 7 -35 13 -57 13 -21 0 -91 9 -155 19 -65 11
-150 25 -190 31 -61 10 -73 15 -77 33 -2 12 -16 95 -30 184 -38 245 -75 349
-215 598 -85 152 -131 219 -240 348 -93 112 -128 141 -276 235 -122 78 -137
85 -309 147 -66 24 -156 59 -200 78 -63 28 -112 40 -227 56 -80 12 -158 21
-172 21 -14 0 -27 3 -30 8 -4 7 -16 90 -47 327 -15 110 -38 146 -58 93z m-23
-703 c-5 -176 -6 -360 -3 -410 3 -49 3 -242 -1 -429 l-7 -339 -30 -16 c-16 -9
-45 -26 -65 -39 -38 -26 -50 -23 -106 21 l-27 22 16 120 c24 179 92 613 131
840 19 110 46 274 60 365 26 167 32 196 37 189 2 -2 -1 -148 -5 -324z m63 232
c-8 -8 -11 -7 -11 4 0 20 13 34 18 19 3 -7 -1 -17 -7 -23z m312 -13 c51 -8
130 -31 177 -50 47 -20 145 -57 218 -83 217 -79 416 -209 538 -353 108 -126
164 -209 256 -373 134 -239 165 -324 203 -562 33 -199 33 -203 -4 -203 -33 0
-29 -11 -87 249 -45 205 -111 401 -172 509 -62 112 -216 315 -289 383 -84 78
-270 200 -393 257 -230 108 -308 141 -365 151 -33 6 -107 20 -165 31 -58 11
-115 20 -126 20 -23 0 -39 24 -28 42 8 12 101 5 237 -18z m-443 -10 c0 -7 -10
-16 -22 -19 -13 -3 -45 -10 -73 -15 -175 -38 -494 -155 -645 -238 -163 -90
-189 -109 -306 -226 -149 -150 -253 -295 -354 -496 -62 -122 -128 -367 -155
-572 -5 -40 -10 -49 -31 -54 -14 -4 -27 -4 -30 -2 -16 16 62 374 104 478 97
242 171 382 277 524 112 151 186 228 251 265 33 18 93 53 134 77 211 126 483
234 705 278 114 23 145 23 145 0z m139 -60 c-6 -16 -13 -24 -16 -17 -5 13 16
58 23 50 3 -2 -1 -17 -7 -33z m302 -17 c111 -20 153 -33 234 -72 54 -25 121
-55 149 -66 76 -30 168 -83 291 -168 145 -99 178 -131 282 -270 117 -155 174
-251 224 -379 43 -111 123 -417 135 -515 8 -66 12 -64 -96 -43 l-65 12 -7 49
c-24 153 -80 359 -155 573 -19 55 -116 162 -133 146 -8 -8 1 -25 37 -64 65
-72 69 -78 88 -145 10 -33 35 -114 57 -180 40 -121 78 -289 78 -347 l0 -31
-62 7 c-34 3 -65 11 -69 17 -3 6 -19 59 -34 118 -29 111 -104 308 -156 414
-17 34 -56 99 -87 144 -53 79 -55 84 -38 102 16 17 16 20 1 35 -13 12 -21 13
-36 6 -16 -9 -31 -1 -99 57 -106 90 -172 129 -342 201 -128 54 -219 81 -330
97 l-36 6 -13 69 c-7 39 -10 73 -7 76 7 6 175 -21 228 -37 163 -50 353 -139
411 -195 28 -27 39 -30 39 -11 0 16 -54 67 -100 95 -55 33 -280 120 -363 141
-41 11 -108 24 -147 30 -40 5 -76 13 -81 18 -4 4 -11 39 -15 77 l-7 69 44 -6
c24 -3 105 -17 180 -30z m-458 15 c3 -4 0 -36 -6 -72 -14 -75 12 -62 -243
-123 -99 -24 -216 -60 -261 -79 -96 -42 -222 -118 -223 -135 0 -21 20 -15 70
22 96 71 198 112 390 160 101 25 198 45 215 45 l32 0 -12 -71 c-7 -38 -16 -74
-21 -78 -5 -5 -43 -17 -84 -27 -103 -25 -484 -216 -568 -283 -38 -32 -72 -51
-88 -51 -18 0 -25 -5 -23 -17 3 -34 -2 -43 -62 -115 -147 -174 -237 -360 -274
-568 -10 -52 -22 -100 -27 -106 -5 -7 -34 -15 -66 -19 -31 -3 -67 -9 -79 -12
-22 -5 -23 -2 -23 50 0 31 16 118 35 194 40 155 120 333 200 442 45 61 52 86
18 65 -20 -12 -121 -182 -164 -274 -36 -77 -106 -323 -115 -406 -8 -71 -21
-84 -86 -84 -58 0 -57 -6 -28 160 47 275 137 487 311 730 74 104 104 138 224
250 143 135 421 270 745 364 152 44 204 54 213 38z m177 -62 c-5 -10 -15 -31
-21 -46 -8 -23 -12 -25 -19 -14 -13 20 -13 20 10 58 21 35 48 36 30 2z m20
-54 c0 -12 -53 -96 -58 -91 -7 7 39 95 50 95 5 0 8 -2 8 -4z m10 -93 c-1 -24
-66 -167 -70 -153 -16 54 -9 83 34 147 26 40 36 42 36 6z m20 -78 c0 -2 -19
-44 -42 -92 -36 -76 -43 -84 -46 -60 -4 29 60 157 78 157 6 0 10 -2 10 -5z
m-33 -203 c-47 -90 -55 -100 -59 -77 -4 18 7 52 34 108 50 104 59 116 71 91 6
-14 -6 -47 -46 -122z m264 118 c94 -24 334 -127 404 -174 66 -44 182 -152 173
-161 -4 -4 -33 15 -64 44 -131 120 -393 236 -604 268 -40 6 -56 13 -58 26 -5
24 47 23 149 -3z m-524 -17 c2 -6 -13 -14 -39 -18 -108 -18 -434 -173 -548
-261 -69 -53 -90 -63 -90 -45 0 15 79 79 140 115 98 57 393 195 450 210 61 17
82 16 87 -1z m542 -56 c41 -14 42 -23 13 -112 l-17 -50 -65 3 c-36 2 -68 7
-73 11 -4 4 -10 45 -14 91 l-6 83 63 -7 c34 -4 79 -13 99 -19z m-549 -14 c-1
-36 -27 -154 -36 -162 -20 -17 -106 -43 -115 -34 -20 20 -61 163 -46 163 1 0
29 11 62 25 73 30 135 33 135 8z m330 -22 c0 -10 -27 -74 -60 -142 l-59 -124
-1 47 c0 36 11 68 51 147 46 94 69 117 69 72z m396 -22 c41 -17 83 -38 94 -47
20 -17 20 -18 -20 -78 -59 -90 -55 -89 -139 -39 -41 24 -78 46 -82 47 -8 3 23
116 37 139 9 15 32 10 110 -22z m-932 -89 c16 -45 27 -82 25 -84 -2 -2 -42
-21 -88 -42 l-84 -38 -23 29 c-14 17 -36 47 -51 69 -27 38 -27 38 -8 53 23 18
175 92 190 92 6 1 23 -35 39 -79z m551 10 c4 -12 -7 -47 -29 -92 -19 -40 -48
-103 -65 -140 -33 -76 -49 -87 -43 -30 3 39 110 282 123 282 4 0 10 -9 14 -20z
m589 -30 c26 -17 70 -51 97 -77 46 -43 48 -47 33 -64 -22 -24 -137 -99 -153
-99 -6 0 -14 6 -17 14 -3 8 -32 35 -65 61 -32 25 -59 49 -59 53 1 12 100 142
108 142 5 0 29 -14 56 -30z m-349 -51 c88 -33 295 -181 295 -211 0 -4 -10 -12
-21 -19 -19 -10 -27 -5 -68 35 -48 47 -111 79 -266 136 -104 39 -115 45 -115
73 0 18 4 19 59 14 32 -4 85 -16 116 -28z m-1052 1 c14 -11 39 -43 56 -70 l30
-49 -32 -24 c-48 -36 -76 -49 -90 -41 -27 16 -117 97 -117 105 0 9 110 99 121
99 4 0 18 -9 32 -20z m427 -20 c0 -13 -11 -25 -32 -35 -18 -8 -77 -33 -131
-56 -55 -23 -125 -62 -158 -85 -64 -48 -71 -50 -87 -31 -9 10 4 25 56 63 90
68 111 79 227 124 118 45 125 46 125 20z m400 -5 c0 -13 -31 -89 -70 -169 -38
-79 -70 -149 -70 -155 0 -6 -4 -11 -10 -11 -24 0 -5 63 63 206 39 85 75 154
80 154 4 0 7 -11 7 -25z m193 -75 c167 -66 249 -123 234 -163 -5 -12 -197
-132 -274 -171 -38 -19 -34 -29 -62 144 -34 215 -35 230 -16 230 9 0 62 -18
118 -40z m-603 -4 c0 -14 -9 -80 -20 -148 -11 -68 -23 -140 -26 -160 -3 -22
-11 -38 -19 -38 -21 0 -275 171 -275 185 0 15 75 72 130 100 41 21 191 84 203
85 4 0 7 -11 7 -24z m1300 -108 c49 -75 122 -241 175 -403 53 -160 64 -215 41
-215 -9 0 -18 6 -20 13 -2 6 -22 79 -45 161 -57 205 -102 314 -182 434 -38 57
-66 109 -62 115 7 12 38 -22 93 -105z m-1970 91 c0 -7 -31 -55 -69 -108 -82
-114 -172 -275 -197 -351 -10 -30 -27 -97 -38 -149 -13 -57 -27 -96 -35 -99
-38 -13 22 236 94 386 52 108 86 161 169 259 60 71 76 84 76 62z m1100 -24 c0
-23 -18 -71 -53 -138 -29 -56 -68 -136 -87 -177 l-35 -75 -3 44 c-3 33 6 65
39 140 101 231 139 288 139 206z m-1024 -75 c25 -38 44 -76 41 -84 -8 -21 -78
-116 -85 -116 -17 0 -122 92 -122 107 0 14 104 163 115 163 2 0 25 -31 51 -70z
m1829 3 c25 -37 45 -73 45 -78 0 -13 -109 -95 -126 -95 -17 0 -87 98 -81 113
8 21 98 127 107 127 5 0 30 -30 55 -67z m-1755 17 c0 -5 -4 -10 -10 -10 -5 0
-10 5 -10 10 0 6 5 10 10 10 6 0 10 -4 10 -10z m40 -34 c0 -18 -16 -29 -30
-21 -13 8 -1 35 16 35 8 0 14 -6 14 -14z m930 -39 c0 -21 -181 -356 -192 -357
-19 -1 -2 47 73 205 89 189 98 203 110 183 5 -7 9 -21 9 -31z m560 23 c0 -5
-5 -10 -11 -10 -5 0 -7 5 -4 10 3 6 8 10 11 10 2 0 4 -4 4 -10z m-1450 -24 c0
-18 -26 -39 -39 -31 -7 4 -6 12 2 25 14 23 37 27 37 6z m1420 -12 c0 -9 -5
-14 -12 -12 -18 6 -21 28 -4 28 9 0 16 -7 16 -16z m-1377 -12 c5 -7 -37 -62
-46 -62 -15 0 -12 31 4 49 21 22 35 26 42 13z m1347 -28 c0 -12 -4 -12 -20 -4
-11 6 -20 17 -20 26 0 12 4 12 20 4 11 -6 20 -17 20 -26z m-1317 -30 c-20 -32
-53 -51 -53 -31 0 19 50 68 61 61 5 -3 1 -16 -8 -30z m1275 13 c17 -18 19 -26
10 -35 -19 -19 -35 -14 -57 17 -27 37 -26 41 2 41 13 0 33 -10 45 -23z m189
-39 c47 -70 82 -153 107 -252 9 -36 23 -81 31 -100 19 -46 19 -46 -9 -46 -20
0 -25 8 -40 63 -22 82 -93 239 -139 307 -28 42 -34 57 -26 72 16 30 32 21 76
-44z m-1611 38 c3 -8 -27 -75 -66 -149 -47 -90 -75 -157 -85 -203 -8 -38 -15
-72 -15 -76 0 -5 -7 -8 -15 -8 -18 0 -19 28 -4 102 21 102 55 182 122 286 42
64 54 72 63 48z m-163 -88 l32 -26 -35 -74 c-19 -40 -36 -75 -37 -77 -3 -5
-177 30 -185 38 -4 3 20 57 53 119 l60 112 41 -32 c22 -18 54 -45 71 -60z
m2035 -21 c24 -60 41 -114 39 -121 -8 -20 -135 -52 -155 -40 -9 6 -25 40 -38
76 -12 36 -27 74 -33 85 -9 18 -5 25 32 55 54 45 78 58 97 55 9 -1 33 -46 58
-110z m-1673 93 c7 -11 -51 -90 -66 -90 -25 0 -19 34 12 66 35 36 44 40 54 24z
m779 -6 c13 -33 4 -54 -74 -170 -44 -65 -80 -122 -80 -126 0 -23 22 2 85 97
39 57 73 104 78 105 4 0 7 -11 7 -25 0 -35 -137 -218 -157 -211 -8 3 -23 6
-34 6 -27 0 -34 25 -14 47 10 10 51 80 92 156 41 75 78 137 82 137 5 0 12 -7
15 -16z m389 -18 c25 -18 37 -46 20 -46 -13 1 -73 59 -73 70 0 12 9 8 53 -24z
m-34 -36 c35 -33 40 -41 26 -46 -11 -5 -29 6 -56 32 -67 65 -41 78 30 14z
m-1206 -127 c53 -86 94 -160 89 -165 -13 -13 -219 -50 -287 -51 l-60 -2 3 40
c2 22 8 56 14 75 13 43 127 260 136 260 4 0 51 -71 105 -157z m127 150 c-1 -5
-21 -30 -45 -58 -33 -38 -47 -47 -56 -38 -9 9 -2 22 27 57 33 40 75 62 74 39z
m1280 -23 c50 -70 160 -333 145 -348 -4 -5 -385 57 -397 65 -17 10 -4 33 78
143 87 118 132 170 145 170 4 0 17 -14 29 -30z m-1240 -9 c0 -12 -91 -121
-100 -121 -26 0 -13 35 32 84 45 49 68 62 68 37z m999 -25 c26 -27 40 -49 36
-56 -5 -8 -23 4 -56 36 -27 27 -49 52 -49 56 0 20 29 4 69 -36z m-41 -32 c46
-40 66 -74 44 -74 -4 0 -34 27 -67 60 -70 70 -53 81 23 14z m-918 27 c0 -4
-27 -37 -60 -72 -72 -78 -81 -57 -9 24 47 53 69 69 69 48z m938 -123 c2 -5 -2
-8 -8 -8 -13 0 -119 110 -120 124 0 9 122 -102 128 -116z m-888 92 c0 -5 -28
-41 -62 -80 -55 -63 -63 -69 -77 -56 -13 14 -8 22 45 78 32 35 63 66 68 70 11
8 26 1 26 -12z m808 -68 c29 -29 52 -57 50 -62 -4 -12 -138 115 -138 131 0 14
16 2 88 -69z m-790 16 c-14 -18 -42 -57 -62 -85 -38 -54 -50 -61 -61 -42 -6 9
77 116 114 147 28 23 33 12 9 -20z m748 -34 c72 -65 86 -84 62 -84 -11 0 -149
126 -156 143 -11 24 30 -2 94 -59z m-713 -5 c-24 -41 -103 -117 -103 -99 1 22
99 142 111 135 5 -4 2 -18 -8 -36z m577 17 c0 -20 -100 -156 -116 -156 -24 0
-15 22 42 103 50 70 74 88 74 53z m125 -66 c27 -27 46 -52 43 -56 -6 -5 -108
92 -108 102 0 13 22 -2 65 -46z m-1420 2 c42 -12 61 -22 63 -36 6 -30 -8 -105
-23 -119 -15 -15 -191 -44 -202 -33 -7 6 9 103 27 169 10 33 14 37 43 36 18 0
59 -8 92 -17z m2231 -68 c24 -81 30 -124 17 -124 -14 0 -138 21 -153 25 -15 5
-54 110 -49 130 3 10 136 54 153 51 5 -1 20 -38 32 -82z m-961 16 c-21 -28
-40 -49 -42 -46 -3 3 11 28 32 56 21 28 40 49 42 46 3 -3 -11 -28 -32 -56z
m123 12 c2 -7 -2 -10 -12 -6 -9 3 -16 11 -16 16 0 13 23 5 28 -10z m-78 -19
c0 -10 -32 -43 -42 -43 -5 0 -1 11 9 25 17 23 33 32 33 18z m-535 -63 c16 -16
25 -30 21 -30 -11 0 -66 43 -66 52 0 16 17 8 45 -22z m-47 -15 c28 -16 52 -36
52 -42 0 -18 -1 -17 -69 23 -34 20 -58 40 -55 46 7 11 4 12 72 -27z m428 4
c70 -27 118 -69 151 -132 21 -42 24 -61 21 -117 -6 -106 -70 -188 -175 -226
-54 -19 -177 -18 -219 2 -43 21 -110 94 -135 147 -74 163 83 373 263 351 21
-2 63 -14 94 -25z m381 12 c162 -32 695 -118 898 -146 105 -14 242 -34 305
-45 63 -11 126 -21 140 -23 47 -5 -1045 -16 -1269 -13 l-224 4 -12 35 c-14 41
-61 123 -75 132 -15 9 6 42 38 59 37 20 82 20 199 -3z m-849 -47 c40 -25 72
-50 72 -56 0 -6 -6 -8 -14 -5 -21 8 -156 96 -156 102 0 14 34 0 98 -41z m-105
-44 c37 -23 66 -44 64 -46 -2 -2 -48 19 -101 47 -68 36 -94 54 -85 60 8 5 22
3 34 -5 11 -7 51 -32 88 -56z m66 14 c83 -51 108 -74 80 -74 -11 0 -165 95
-189 117 -12 11 -12 13 2 13 9 0 57 -25 107 -56z m-116 -31 c69 -36 138 -77
154 -89 l28 -23 -34 -1 c-23 0 -75 23 -177 81 -133 75 -161 99 -115 99 11 0
75 -30 144 -67z m-80 -30 c78 -42 135 -79 128 -81 -14 -5 -331 139 -331 150 0
4 14 8 32 8 20 0 80 -27 171 -77z m-100 -10 c81 -37 147 -70 147 -75 0 -29
-156 18 -302 92 -85 43 -91 50 -37 50 33 0 80 -16 192 -67z m-188 9 c55 -26
120 -57 145 -68 43 -20 43 -21 17 -26 -18 -4 -65 11 -150 47 -162 69 -173 75
-156 86 24 15 41 10 144 -39z m-84 -29 c119 -56 121 -58 88 -65 -27 -5 -50 1
-114 29 -140 62 -160 74 -144 84 25 16 45 10 170 -48z m-123 -15 c59 -28 101
-53 94 -55 -13 -5 -229 85 -238 98 -13 22 46 4 144 -43z m-148 17 c27 -14 75
-35 107 -47 46 -17 54 -23 38 -28 -23 -8 -44 -3 -135 35 -88 37 -102 44 -95
56 10 15 32 11 85 -16z m906 -13 c-4 -3 -14 2 -24 12 -16 18 -16 18 6 6 13 -6
21 -14 18 -18z m-966 -21 c79 -37 94 -60 29 -46 -42 10 -149 63 -149 75 0 19
38 10 120 -29z m-125 -3 c36 -18 65 -36 65 -41 0 -26 -169 32 -178 61 -7 22
46 13 113 -20z m-140 0 c44 -21 58 -38 33 -38 -23 1 -98 39 -98 50 0 15 14 12
65 -12z m-75 -18 l35 -18 -27 -7 c-30 -8 -100 15 -106 34 -6 18 59 12 98 -9z
m-139 -6 c17 -8 29 -17 27 -20 -7 -7 -68 17 -68 27 0 12 6 11 41 -7z m1474
-99 c9 -25 27 -60 41 -80 13 -20 24 -41 24 -48 0 -7 -24 -28 -54 -48 l-54 -35
-123 18 c-68 10 -191 32 -272 49 -81 17 -180 34 -220 39 -267 33 -768 114
-795 129 -7 4 198 9 455 10 257 2 576 6 708 10 132 3 247 4 256 3 10 -2 24
-23 34 -47z m999 -34 c72 -43 131 -82 133 -88 2 -6 -17 -14 -42 -17 -40 -6
-53 -3 -103 24 -70 40 -212 140 -212 151 0 10 48 17 75 12 11 -3 78 -39 149
-82z m28 80 c20 -1 228 -137 228 -150 0 -4 -14 -11 -32 -15 -26 -5 -42 0 -83
25 -27 18 -87 54 -133 81 -45 27 -80 53 -77 58 3 5 22 7 43 5 20 -2 44 -4 54
-4z m598 -16 c8 -7 37 -25 63 -40 34 -19 45 -31 38 -38 -12 -12 -30 -4 -124
51 -38 22 -55 37 -47 42 15 9 50 2 70 -15z m351 4 c56 -25 63 -39 18 -39 -35
0 -111 38 -103 52 8 13 32 9 85 -13z m109 1 l25 -20 -23 0 c-28 0 -62 17 -62
30 0 17 34 11 60 -10z m98 3 c5 -18 -20 -16 -44 2 -18 15 -18 15 10 13 16 -2
31 -9 34 -15z m-1408 -39 c57 -40 102 -70 200 -132 l25 -16 -48 -7 c-53 -8
-33 -19 -249 127 -78 52 -87 74 -30 74 28 0 53 -11 102 -46z m525 -24 c89 -59
95 -65 73 -73 -12 -4 -36 -6 -52 -3 -31 6 -215 125 -216 140 0 5 22 6 49 4 38
-4 69 -18 146 -68z m143 13 c73 -45 89 -59 76 -66 -36 -20 -102 -1 -182 53
-104 72 -103 70 -41 70 50 0 64 -6 147 -57z m112 12 c41 -25 78 -45 83 -45 4
0 5 -4 2 -10 -13 -21 -63 -8 -138 35 -42 25 -77 50 -77 55 0 23 60 7 130 -35z
m227 13 c35 -18 63 -36 63 -40 0 -5 -17 -8 -38 -8 -36 0 -121 44 -138 71 -12
21 55 7 113 -23z m94 5 c73 -39 45 -52 -30 -14 -33 17 -61 33 -61 36 0 13 48
2 91 -22z m-1144 -94 c54 -34 104 -67 111 -74 23 -21 -32 -28 -71 -9 -44 23
-144 92 -152 104 -7 11 0 40 9 40 3 0 49 -28 103 -61z m-2089 -99 c23 -141 70
-337 102 -428 24 -68 172 -298 271 -422 42 -52 119 -136 170 -186 90 -87 102
-96 277 -183 196 -98 323 -146 412 -156 30 -3 114 -20 185 -38 72 -17 130 -32
131 -32 1 0 4 -13 8 -29 l7 -29 -88 5 c-62 4 -113 14 -173 36 -312 110 -381
137 -496 195 -213 107 -329 204 -524 435 -191 225 -256 352 -331 644 -20 80
-41 289 -31 316 2 7 16 12 31 10 25 -3 27 -6 49 -138z m100 111 c23 -5 45 -10
47 -12 2 -3 13 -52 25 -109 23 -116 107 -375 147 -453 33 -65 94 -157 104
-157 19 0 17 20 -4 47 -78 97 -123 207 -212 519 -8 28 -18 72 -21 98 l-7 48
69 -7 c38 -4 74 -12 80 -17 7 -5 15 -25 18 -46 34 -193 171 -503 282 -639 25
-30 34 -51 34 -77 0 -29 4 -36 19 -36 11 0 23 5 26 10 12 20 38 9 148 -64 62
-40 139 -87 172 -104 75 -39 292 -125 371 -147 32 -10 64 -22 71 -27 7 -5 17
-35 24 -66 6 -31 14 -62 16 -69 8 -20 -25 -16 -190 26 -224 56 -411 134 -515
213 -64 48 -94 39 -37 -11 77 -67 291 -159 506 -216 74 -19 159 -44 189 -54
54 -18 55 -19 67 -67 19 -81 17 -94 -14 -94 -15 0 -59 9 -97 20 -39 10 -117
26 -174 34 -122 18 -180 40 -412 153 l-175 86 -116 116 c-120 121 -199 219
-292 361 -97 150 -133 234 -176 412 -31 125 -61 291 -61 335 0 5 45 2 88 -6z
m3305 -8 c11 -20 -26 -223 -62 -339 -50 -163 -65 -202 -148 -371 -87 -179
-198 -328 -335 -453 -127 -115 -215 -174 -383 -255 -197 -96 -404 -164 -545
-180 -63 -8 -119 -10 -123 -5 -5 4 -6 17 -2 29 5 18 14 21 63 21 40 0 87 11
157 36 55 19 138 44 185 55 112 27 274 107 444 220 175 116 264 192 338 293
120 162 248 466 323 772 19 77 35 147 35 156 0 22 43 38 53 21z m-1303 -104
c0 -23 -57 -6 -107 31 -51 39 -60 50 -47 63 8 7 154 -82 154 -94z m1217 53
c-10 -87 -104 -394 -165 -540 -115 -273 -191 -385 -350 -513 -206 -166 -435
-290 -639 -344 -73 -20 -153 -44 -178 -55 -31 -13 -69 -20 -112 -20 l-65 0 7
68 c10 96 15 102 80 102 115 0 302 53 457 130 144 72 226 132 216 160 -2 6
-32 -12 -67 -40 -143 -115 -366 -200 -592 -226 -79 -9 -84 4 -63 144 4 29 8
32 39 32 43 0 164 38 297 93 98 41 320 177 380 234 14 14 31 22 37 19 7 -4 11
1 11 12 0 11 35 67 78 124 43 56 98 144 124 193 53 104 126 295 142 375 13 60
23 67 102 69 l40 1 -13 -107 c-19 -144 -107 -373 -192 -498 -23 -33 -28 -69
-9 -63 19 7 150 273 181 366 15 44 34 128 43 188 9 60 20 113 24 117 7 7 103
22 169 26 23 1 24 -1 18 -47z m-2907 -64 c69 -236 141 -394 236 -513 52 -65
65 -97 45 -110 -22 -13 -142 173 -213 331 -41 90 -108 301 -108 340 0 47 20
23 40 -48z m147 52 c40 -7 75 -15 77 -18 2 -4 7 -28 11 -53 l7 -46 -87 -22
c-48 -12 -90 -19 -94 -16 -10 11 -50 159 -44 168 3 4 17 6 31 3 15 -3 60 -10
99 -16z m1410 -16 c36 -27 42 -44 16 -44 -22 0 -85 49 -78 61 10 15 26 11 62
-17z m963 -3 c0 -66 -105 -335 -175 -446 -64 -103 -154 -217 -166 -209 -15 9
-6 26 75 137 98 135 149 240 187 383 39 149 45 164 64 164 10 0 15 -10 15 -29z
m-75 9 c8 -13 -25 -131 -39 -136 -6 -2 -40 5 -76 15 -59 16 -65 20 -68 47 -5
46 17 65 84 74 87 11 92 11 99 0z m-2147 -27 c11 -10 39 -70 62 -133 23 -63
57 -140 76 -172 38 -63 40 -71 20 -87 -11 -9 -20 -4 -45 24 -43 49 -75 116
-116 242 -36 111 -42 143 -26 143 5 0 18 -8 29 -17z m1197 -24 c24 -21 35 -40
35 -58 0 -15 -16 -112 -35 -217 -53 -291 -93 -568 -115 -804 -35 -376 -72
-655 -90 -673 -24 -26 -52 537 -38 778 5 88 7 250 4 360 -2 110 -2 285 2 390
l7 189 55 11 c44 9 99 30 137 54 1 0 18 -13 38 -30z m739 -6 c-15 -83 -79
-238 -128 -308 -53 -77 -79 -93 -91 -54 -5 16 9 44 54 111 54 81 85 154 117
276 2 6 15 12 29 12 24 0 26 -2 19 -37z m-1728 1 c76 -14 140 -27 142 -29 10
-9 -140 -265 -155 -265 -20 0 -61 70 -102 177 -53 136 -55 143 -38 143 7 0 76
-12 153 -26z m564 19 c0 -12 -107 -129 -113 -123 -10 11 -16 46 -9 56 8 13
102 74 114 74 4 0 8 -3 8 -7z m1080 -16 c0 -28 -30 -119 -55 -168 -24 -45 -95
-139 -106 -139 -9 0 -80 103 -148 213 -27 45 -37 69 -29 71 17 5 286 43 316
45 17 1 22 -4 22 -22z m-1020 -19 c-1 -7 -36 -51 -79 -97 -70 -74 -80 -81 -86
-62 -7 22 -4 27 74 119 30 35 52 52 68 52 12 0 23 -6 23 -12z m36 -50 c-20
-24 -64 -79 -97 -123 -34 -44 -65 -81 -69 -83 -17 -6 -17 38 1 67 32 53 160
181 182 181 17 0 15 -6 -17 -42z m574 30 c0 -18 -168 -194 -176 -185 -10 10
60 109 112 157 45 41 64 49 64 28z m-132 -10 c-6 -18 -28 -21 -28 -4 0 9 7 16
16 16 9 0 14 -5 12 -12z m44 -15 c-15 -26 -71 -78 -78 -71 -3 4 13 27 37 52
42 46 60 54 41 19z m-804 -67 c45 -46 82 -86 82 -90 0 -23 -38 6 -109 84 -45
50 -76 90 -68 90 7 0 50 -38 95 -84z m24 57 c23 -26 41 -64 34 -71 -7 -6 -86
67 -86 80 0 15 37 8 52 -9z m-68 -75 c42 -46 76 -90 76 -98 0 -9 -18 4 -43 31
-122 131 -136 149 -123 149 8 0 48 -37 90 -82z m406 44 c0 -34 -13 -55 -96
-160 -53 -67 -100 -120 -105 -117 -24 16 -7 66 46 137 61 80 144 178 151 178
2 0 4 -17 4 -38z m489 -72 c-68 -75 -88 -88 -96 -64 -2 5 34 47 79 94 61 64
83 81 86 68 2 -11 -24 -48 -69 -98z m-1417 28 c11 -29 22 -60 25 -69 3 -11
-16 -28 -64 -57 -38 -23 -75 -42 -82 -42 -10 0 -91 154 -91 174 0 20 167 71
184 55 5 -4 18 -32 28 -61z m2045 50 l75 -22 -6 -35 c-3 -19 -26 -76 -52 -128
-54 -109 -62 -112 -141 -53 l-53 41 24 47 c20 40 50 117 62 160 4 16 3 16 91
-10z m-1553 -79 c72 -74 85 -98 60 -106 -5 -2 -45 33 -88 76 -54 55 -77 84
-73 95 4 9 10 16 15 16 5 0 44 -36 86 -81z m1026 49 c0 -17 -118 -153 -132
-153 -29 0 -14 29 48 94 66 70 84 83 84 59z m-1051 -112 c53 -53 61 -66 48
-72 -21 -8 -37 5 -99 79 -86 104 -53 99 51 -7z m1081 63 c0 -17 -101 -129
-116 -129 -26 0 -14 21 43 81 55 58 73 70 73 48z m-1133 -85 c67 -70 74 -84
44 -84 -22 0 -121 110 -121 134 0 26 11 19 77 -50z m486 -25 c-86 -115 -146
-189 -154 -189 -5 0 -9 13 -9 29 0 29 74 134 154 219 l31 33 3 -27 c3 -18 -6
-40 -25 -65z m677 65 c0 -17 -87 -113 -102 -114 -27 0 -22 10 28 68 39 45 74
66 74 46z m-1150 -145 c0 -4 -8 -10 -17 -14 -13 -5 -29 6 -60 40 -41 45 -52
73 -35 89 7 8 112 -100 112 -115z m1180 104 c-1 -18 -71 -103 -85 -103 -26 0
-17 23 27 67 40 41 58 52 58 36z m-1515 -77 l47 -69 -47 -68 c-26 -38 -53 -69
-60 -69 -14 0 -105 118 -126 163 -8 17 -9 31 -3 37 16 16 128 80 135 78 4 -2
28 -34 54 -72z m1236 29 c58 -30 144 -88 190 -129 31 -28 31 -30 13 -43 -10
-8 -67 -39 -126 -69 -118 -59 -186 -80 -194 -60 -4 11 40 281 51 314 6 16 8
16 66 -13z m302 -9 c-29 -49 -83 -93 -83 -68 0 16 72 92 81 86 5 -3 6 -11 2
-18z m-1300 -30 c41 -50 45 -61 21 -70 -17 -7 -81 35 -90 59 -6 15 12 55 24
55 4 0 24 -20 45 -44z m337 32 c0 -7 9 -71 19 -143 11 -71 16 -134 11 -138
-13 -15 -300 112 -300 133 0 13 53 52 150 110 83 50 120 61 120 38z m260 -22
c0 -23 -146 -225 -163 -226 -37 -1 23 114 109 210 42 46 54 50 54 16z m987
-28 c34 -24 63 -46 63 -49 0 -13 -102 -139 -113 -139 -7 0 -30 28 -51 61 -37
57 -39 63 -25 83 8 13 23 37 34 54 11 18 22 32 25 32 3 0 33 -19 67 -42z
m-247 10 c0 -16 -51 -68 -67 -68 -21 0 -15 22 14 52 28 29 53 37 53 16z
m-1391 -48 c27 -26 31 -33 20 -46 -17 -21 -48 -14 -66 17 -15 25 -13 59 4 59
5 0 23 -14 42 -30z m1394 -32 c-27 -27 -33 -29 -39 -15 -7 20 46 71 61 56 6
-6 -2 -21 -22 -41z m-743 -6 c0 -19 -137 -212 -151 -212 -19 0 -7 44 23 88 43
64 109 142 120 142 4 0 8 -8 8 -18z m790 -5 c0 -14 -20 -37 -32 -37 -12 0 -10
24 4 38 16 16 28 15 28 -1z m-1490 -17 c9 -16 8 -22 -6 -27 -16 -6 -44 19 -44
39 0 17 40 7 50 -12z m422 -156 c54 -16 82 -44 63 -62 -11 -11 -161 25 -212
51 -27 13 -69 40 -94 58 -24 19 -56 42 -69 51 -24 17 -24 18 -7 32 16 13 31 8
140 -49 67 -35 148 -71 179 -81z m1089 123 c-13 -13 -26 -3 -16 12 3 6 11 8
17 5 6 -4 6 -10 -1 -17z m-1562 -1 c8 -10 9 -16 1 -21 -13 -8 -30 3 -30 21 0
18 14 18 29 0z m1430 -2 l23 -16 -29 -30 c-51 -54 -251 -144 -361 -163 -42 -7
-42 -7 -42 24 0 25 5 32 28 37 69 14 238 91 317 143 37 24 36 24 64 5z m-1291
-44 c18 -11 35 -27 38 -35 7 -17 -71 -155 -88 -155 -16 0 -121 66 -142 89 -17
19 -17 20 26 47 23 15 59 38 78 50 44 28 47 29 88 4z m545 -124 c-32 -47 -61
-85 -65 -86 -5 0 -8 12 -8 28 0 30 23 72 84 151 l41 55 3 -31 c2 -24 -10 -50
-55 -117z m-723 125 c0 -5 -7 -11 -15 -15 -15 -5 -20 5 -8 17 9 10 23 9 23 -2z
m1602 -39 c32 -20 58 -43 58 -49 0 -14 -87 -86 -130 -108 -32 -17 -40 -12 -79
49 -38 61 -39 77 -3 98 15 9 36 26 47 38 22 24 29 22 107 -28z m-1287 -57 c32
-19 73 -38 92 -41 23 -4 33 -12 33 -25 0 -21 -38 -128 -52 -145 -6 -8 -35 0
-101 30 -132 58 -132 58 -117 87 19 35 80 129 84 129 2 0 30 -16 61 -35z
m1108 -56 c21 -34 37 -66 37 -71 0 -11 -158 -88 -179 -88 -16 0 -78 127 -67
137 8 9 151 81 162 82 6 0 27 -27 47 -60z m-643 36 c0 -17 -101 -173 -112
-174 -12 -1 -10 47 2 54 5 3 28 35 52 70 42 65 58 78 58 50z m923 -19 c-13
-24 -199 -154 -274 -191 -96 -49 -332 -127 -371 -123 -59 6 -40 31 37 48 113
26 171 48 330 126 90 43 174 92 210 122 56 46 89 55 68 18z m-1728 4 c10 -11
14 -20 9 -20 -12 1 -44 25 -44 34 0 12 17 6 35 -14z m132 -84 c140 -82 381
-184 496 -210 28 -7 38 -26 13 -26 -26 0 -212 69 -332 123 -101 45 -284 150
-284 163 0 10 21 0 107 -50z m444 43 c37 -12 38 -12 49 -83 6 -39 15 -85 20
-103 4 -17 6 -34 3 -37 -14 -14 -203 51 -203 69 0 15 35 116 49 144 13 24 28
26 82 10z m654 -66 c39 -86 35 -94 -63 -121 -111 -32 -116 -29 -107 56 9 86
14 94 67 108 72 20 74 19 103 -43z m-449 -13 c-13 -17 -35 -48 -47 -70 -23
-40 -39 -51 -39 -27 0 12 31 63 79 127 20 28 26 31 29 17 2 -9 -8 -31 -22 -47z
m6 -104 c-10 -11 -29 -38 -41 -58 -13 -21 -25 -38 -27 -38 -2 0 -4 13 -4 28 0
17 17 55 42 93 l43 64 3 -34 c2 -22 -3 -40 -16 -55z m6 -94 c-8 -10 -22 -35
-32 -57 -16 -35 -19 -37 -28 -21 -12 21 -2 49 40 110 l27 40 3 -28 c2 -15 -3
-35 -10 -44z m-8 -117 c-12 -19 -26 -35 -31 -35 -13 0 -12 5 19 63 22 43 28
48 30 29 2 -12 -6 -38 -18 -57z m20 -58 c0 -19 -36 -55 -45 -45 -4 4 35 68 41
68 2 0 4 -10 4 -23z m0 -99 c0 -13 -4 -29 -9 -37 -13 -20 -24 4 -17 35 8 30
26 32 26 2z"/>
<path d="M4025 4267 c-44 -43 -56 -67 -35 -67 6 0 22 12 36 28 l25 27 -6 -47
c-4 -34 -3 -48 5 -48 16 0 110 61 110 71 0 18 -19 17 -43 -1 -36 -28 -40 -25
-33 24 10 62 -7 66 -59 13z"/>
<path d="M4152 4161 c-39 -48 -39 -60 -7 -91 20 -19 28 -21 38 -11 9 10 8 14
-5 22 -18 10 -25 39 -9 39 5 0 14 -7 21 -15 9 -11 16 -13 24 -5 7 7 3 16 -12
31 -12 11 -20 25 -16 30 4 6 15 2 28 -10 21 -20 46 -28 46 -15 0 17 -44 64
-59 64 -10 0 -32 -18 -49 -39z"/>
<path d="M2070 4298 c1 -7 7 -24 15 -38 21 -37 18 -42 -16 -35 -29 7 -31 5
-26 -14 6 -25 -1 -26 -27 -6 -23 17 -50 20 -41 4 9 -14 86 -69 97 -69 4 0 8
11 8 25 0 21 5 25 30 25 36 0 37 10 7 69 -22 44 -47 66 -47 39z"/>
<path d="M1917 4173 c-4 -6 2 -18 13 -28 30 -27 24 -38 -16 -32 -52 9 -56 -16
-8 -58 38 -34 64 -44 64 -26 0 5 -12 19 -27 30 l-28 20 43 1 c23 0 42 4 42 9
0 17 -77 95 -83 84z"/>
<path d="M3050 3310 c-50 -7 -96 -28 -122 -57 -27 -29 -68 -125 -68 -159 0
-50 49 -135 98 -169 39 -27 51 -30 120 -29 111 0 172 37 222 132 17 34 15 123
-3 157 -17 33 -57 73 -100 100 -36 23 -90 32 -147 25z m115 -39 c57 -26 114
-90 121 -133 15 -92 -61 -200 -151 -213 -95 -15 -166 12 -212 78 -66 96 -6
250 108 277 56 13 92 11 134 -9z"/>
<path d="M2984 3242 c-38 -24 -64 -85 -64 -149 0 -41 5 -50 40 -84 38 -36 91
-59 135 -59 63 1 146 70 164 137 13 47 -8 94 -62 137 -33 27 -48 31 -110 34
-58 2 -78 -1 -103 -16z m139 -13 c45 -12 105 -62 113 -94 3 -13 -3 -43 -15
-69 -16 -37 -29 -51 -63 -66 -24 -11 -54 -20 -68 -20 -33 0 -100 32 -124 58
-34 39 -18 131 30 173 35 30 67 35 127 18z"/>
<path d="M1910 2141 c-8 -15 -8 -27 0 -42 13 -24 5 -38 -12 -21 -7 7 -16 12
-20 12 -14 0 -8 -22 10 -36 41 -32 72 -2 53 50 -10 24 -8 26 15 26 34 0 26 24
-9 28 -18 2 -29 -3 -37 -17z"/>
<path d="M1980 2060 c-26 -51 -25 -60 6 -60 23 0 25 -3 20 -24 -3 -14 -2 -27
3 -31 13 -8 104 30 109 45 5 13 -23 11 -60 -4 -13 -6 -17 -1 -20 21 -2 20 -8
27 -20 25 -22 -4 -23 8 -3 34 19 25 19 34 0 34 -8 0 -24 -18 -35 -40z"/>
<path d="M4135 2154 c-14 -15 -25 -32 -25 -38 1 -20 79 -98 95 -94 19 4 52 54
42 64 -4 4 -16 -1 -27 -11 -26 -24 -50 -6 -26 18 9 9 16 20 16 26 0 15 -23 14
-38 -1 -22 -22 -26 2 -4 25 12 13 22 26 22 30 0 16 -33 5 -55 -19z"/>
<path d="M4040 2066 c-6 -8 -10 -25 -8 -38 2 -19 10 -24 47 -28 48 -5 65 -24
32 -35 -12 -3 -21 -11 -21 -16 0 -16 36 -10 54 10 26 29 6 59 -44 67 -41 7
-51 18 -25 28 8 3 15 10 15 16 0 15 -36 12 -50 -4z"/>
<path d="M2552 4968 c-17 -17 -15 -42 6 -61 26 -24 47 -21 66 8 25 37 13 65
-28 65 -17 0 -37 -5 -44 -12z"/>
<path d="M3569 4932 c-41 -34 -4 -98 41 -69 26 16 26 63 1 77 -15 7 -25 5 -42
-8z"/>
<path d="M4833 4838 c-37 -34 -129 -121 -203 -193 -74 -72 -161 -152 -192
-180 -54 -46 -72 -75 -47 -75 6 0 109 93 228 208 119 114 237 225 263 246 42
36 53 56 28 56 -5 0 -40 -28 -77 -62z"/>
<path d="M1310 4862 c0 -5 44 -49 97 -98 54 -49 162 -154 241 -233 150 -151
204 -187 83 -54 -96 105 -397 393 -410 393 -6 0 -11 -4 -11 -8z"/>
<path d="M4027 4742 c-24 -27 -21 -51 8 -64 37 -17 63 10 49 49 -12 34 -35 40
-57 15z"/>
<path d="M2057 4733 c-16 -15 -6 -63 14 -73 38 -21 78 37 47 68 -13 13 -50 16
-61 5z"/>
<path d="M4673 4113 c-22 -8 -15 -51 11 -68 26 -18 52 -11 67 16 18 34 -36 70
-78 52z"/>
<path d="M1418 4069 c-11 -6 -18 -22 -18 -39 0 -24 5 -31 27 -36 19 -5 30 -2
40 11 34 48 -1 93 -49 64z"/>
<path d="M4846 3674 c-9 -8 -16 -22 -16 -29 0 -19 28 -45 49 -45 19 0 51 30
51 48 0 17 -30 42 -50 42 -10 0 -26 -7 -34 -16z"/>
<path d="M1207 3602 c-39 -43 2 -104 44 -66 23 21 25 69 3 78 -24 9 -29 8 -47
-12z"/>
<path d="M714 3293 c-16 -48 -118 -273 -124 -273 -4 0 -24 31 -46 70 -21 38
-44 70 -50 70 -6 0 -19 -27 -29 -60 -10 -34 -22 -63 -26 -66 -9 -5 -67 100
-100 180 -22 54 -42 77 -55 63 -9 -8 148 -318 159 -314 5 1 19 33 30 70 11 37
23 67 27 67 3 0 24 -31 46 -70 21 -38 44 -70 50 -70 6 0 24 35 39 78 15 42 47
116 71 164 24 48 44 92 44 98 0 17 -30 11 -36 -7z"/>
<path d="M5537 3253 c-3 -5 -4 -91 -3 -193 l1 -185 118 -3 c98 -2 117 0 117
12 0 12 -19 16 -102 18 l-103 3 0 75 0 75 80 5 c62 4 80 8 80 20 0 12 -15 14
-83 11 l-83 -3 3 69 3 68 100 1 c85 1 100 3 103 17 3 15 -10 17 -112 17 -63 0
-117 -3 -119 -7z"/>
<path d="M4876 2628 c-25 -35 16 -89 52 -69 26 14 33 45 15 70 -18 27 -48 27
-67 -1z"/>
<path d="M1183 2614 c-9 -24 10 -68 30 -72 38 -8 64 47 35 76 -17 17 -58 15
-65 -4z"/>
<path d="M4698 2163 c-29 -34 -28 -41 2 -63 25 -18 33 -20 46 -9 20 17 14 59
-12 75 -18 12 -23 12 -36 -3z"/>
<path d="M1402 2158 c-7 -7 -12 -21 -12 -33 0 -47 62 -63 81 -21 22 47 -33 90
-69 54z"/>
<path d="M4390 1788 c1 -14 11 -26 149 -179 141 -155 310 -329 321 -329 25 0
1 30 -119 153 -70 73 -174 184 -231 247 -104 117 -120 132 -120 108z"/>
<path d="M1679 1704 c-41 -42 -135 -131 -209 -197 -136 -123 -200 -186 -200
-199 0 -19 27 -5 52 26 16 19 74 74 130 123 101 86 328 306 328 317 0 22 -38
-5 -101 -70z"/>
<path d="M2067 1534 c-13 -14 -7 -44 13 -64 30 -30 62 -11 58 33 -3 27 -7 32
-33 35 -17 2 -34 0 -38 -4z"/>
<path d="M4072 1478 c-29 -29 -3 -84 35 -76 25 5 44 47 32 70 -11 20 -49 24
-67 6z"/>
<path d="M2437 1354 c-27 -27 19 -98 50 -78 29 18 39 42 27 62 -11 17 -64 29
-77 16z"/>
<path d="M3668 1319 c-22 -12 -23 -52 -3 -69 21 -18 47 -8 65 23 14 26 14 29
-4 43 -23 16 -35 17 -58 3z"/>
<path d="M3012 668 c-12 -6 -25 -23 -29 -36 -10 -42 16 -73 76 -94 62 -21 98
-49 116 -93 36 -84 -53 -163 -139 -124 -23 11 -56 62 -56 88 0 6 -7 11 -15 11
-37 0 1 -90 52 -121 53 -33 118 -22 159 25 18 20 34 48 37 63 13 67 -38 138
-120 169 -87 32 -110 73 -53 93 35 12 76 0 96 -27 10 -14 15 -15 26 -4 11 11
8 18 -15 38 -31 26 -93 32 -135 12z"/>
</g>
</svg>
