<?xml version="1.0" standalone="no"?>
<!DOCTYPE svg PUBLIC "-//W3C//DTD SVG 20010904//EN"
 "http://www.w3.org/TR/2001/REC-SVG-20010904/DTD/svg10.dtd">
<svg version="1.0" xmlns="http://www.w3.org/2000/svg"
 width="1024.000000pt" height="1024.000000pt" viewBox="0 0 1024.000000 1024.000000"
 preserveAspectRatio="xMidYMid meet">

<g transform="translate(0.000000,1024.000000) scale(0.100000,-0.100000)"
fill="#000000" stroke="none">
<path d="M7060 7385 c-24 -18 -58 -37 -74 -42 l-30 -8 38 -12 c31 -10 37 -9
32 2 -3 9 11 26 37 45 47 34 48 33 67 -47 6 -29 14 -53 17 -53 2 0 25 16 50
35 26 20 58 38 72 41 46 10 47 11 11 21 -29 8 -36 7 -42 -7 -5 -15 -50 -50
-62 -50 -3 0 -10 19 -16 43 -10 37 -33 68 -49 66 -3 0 -26 -15 -51 -34z"/>
<path d="M4970 7255 l0 -75 -39 0 c-21 0 -52 -3 -68 -6 -27 -5 -31 -3 -37 20
-8 33 -36 35 -36 1 0 -20 -6 -25 -32 -29 -18 -3 -50 -8 -70 -11 -34 -5 -38 -3
-44 20 -4 16 -13 25 -26 25 -16 0 -19 -5 -13 -29 6 -28 6 -29 -51 -36 -31 -4
-62 -9 -69 -11 -6 -3 -17 7 -23 21 -17 36 -46 34 -37 -4 6 -28 6 -29 -61 -41
-65 -13 -68 -12 -82 9 -8 11 -23 21 -33 21 -23 0 -24 -8 -3 -32 19 -20 21 -19
-68 -41 -55 -14 -57 -14 -78 8 -30 31 -56 23 -34 -10 15 -24 15 -24 -52 -44
-68 -20 -68 -20 -89 -1 -36 34 -60 24 -29 -12 16 -16 15 -18 -2 -24 -11 -4
-41 -16 -67 -26 -48 -18 -49 -18 -74 2 -44 35 -73 21 -33 -15 20 -18 20 -19
-36 -42 -68 -27 -77 -28 -109 -7 -14 9 -32 13 -42 9 -16 -5 -14 -8 10 -23 15
-9 27 -20 27 -23 0 -25 -60 -9 -292 77 -143 53 -261 94 -262 93 -2 -2 66 -67
150 -144 85 -77 154 -143 154 -148 0 -18 -34 -18 -71 -2 -28 13 -43 15 -50 8
-8 -8 -2 -16 21 -28 37 -19 39 -16 -32 -59 l-54 -32 -40 16 c-38 17 -64 16
-64 0 0 -4 16 -14 37 -22 l36 -15 -59 -40 c-58 -40 -60 -40 -98 -26 -40 13
-81 9 -71 -7 3 -5 21 -12 41 -16 19 -3 34 -10 32 -14 -2 -4 -25 -24 -52 -45
-46 -35 -51 -36 -95 -29 -62 11 -64 11 -68 -3 -3 -7 10 -15 31 -19 20 -3 38
-10 41 -14 2 -4 -18 -26 -46 -50 l-50 -42 -52 10 c-41 8 -55 8 -66 -3 -11 -11
-6 -14 33 -20 25 -4 48 -11 51 -14 2 -4 -17 -28 -43 -53 l-47 -46 -58 7 c-40
5 -61 3 -68 -5 -11 -14 17 -24 69 -24 17 0 32 -3 32 -6 0 -3 -18 -28 -41 -55
l-41 -49 -69 0 c-55 0 -69 -3 -69 -15 0 -12 13 -15 55 -15 30 0 55 -2 55 -5 0
-3 -18 -30 -40 -60 l-40 -54 -67 -3 c-42 -2 -68 -8 -71 -15 -3 -10 13 -13 58
-13 34 0 60 -3 58 -7 -2 -5 -16 -32 -31 -60 -24 -47 -31 -53 -60 -53 -17 0
-108 -5 -202 -10 -125 -8 -174 -15 -185 -25 -12 -13 -8 -15 40 -15 30 0 122 5
204 10 82 5 151 8 153 7 2 -2 -9 -31 -23 -65 l-27 -61 -66 -6 c-82 -8 -91 -11
-91 -29 0 -12 10 -14 53 -10 28 3 60 7 69 9 22 4 22 4 0 -70 l-18 -60 -79 -15
c-60 -11 -81 -19 -83 -32 -3 -14 2 -17 25 -13 125 23 123 23 123 4 0 -10 -5
-41 -11 -68 -11 -54 -11 -54 -114 -76 -58 -13 -65 -17 -65 -34 0 -18 3 -17 78
0 42 10 79 19 82 19 3 0 3 -32 0 -72 -6 -80 5 -70 -112 -103 -46 -13 -58 -21
-58 -36 0 -16 4 -19 21 -14 12 4 49 15 84 25 l62 18 7 -71 c3 -38 4 -72 2 -75
-3 -2 -40 -17 -83 -32 -61 -22 -79 -32 -81 -49 -2 -11 -2 -21 0 -21 2 0 42 14
87 30 46 17 85 29 86 28 9 -13 34 -142 28 -148 -4 -3 -39 -19 -78 -35 -82 -33
-98 -45 -86 -64 8 -12 25 -8 96 23 48 21 88 36 89 34 1 -2 14 -36 29 -76 l26
-72 -90 -45 c-49 -25 -89 -49 -89 -53 0 -4 4 -13 9 -20 6 -11 28 -4 99 32 l92
46 16 -33 c9 -17 27 -51 41 -74 l24 -41 -90 -54 c-84 -50 -90 -56 -77 -73 13
-18 18 -16 102 34 l88 52 17 -23 c14 -18 15 -26 6 -34 -7 -6 -205 -175 -442
-374 -726 -612 -800 -676 -780 -667 6 2 321 182 700 399 380 217 700 400 711
406 18 9 25 7 42 -11 l21 -22 -85 -70 c-84 -69 -84 -69 -65 -89 23 -22 10 -29
122 67 l66 56 82 -67 81 -67 -77 -77 c-65 -66 -75 -79 -63 -92 7 -9 17 -16 24
-16 6 0 45 34 87 76 l76 75 91 -58 c50 -32 92 -61 92 -65 0 -4 -29 -41 -65
-83 -36 -42 -65 -81 -65 -86 0 -7 32 -29 43 -29 3 0 37 38 76 85 l71 84 95
-49 c52 -26 101 -50 108 -53 8 -3 -10 -37 -51 -97 -35 -51 -62 -93 -60 -95 7
-6 47 -25 52 -25 3 0 33 41 66 90 33 50 65 90 71 90 5 0 35 -11 67 -24 31 -13
81 -31 110 -41 28 -9 52 -19 52 -21 0 -3 -22 -47 -50 -98 -27 -51 -50 -95 -50
-98 0 -4 13 -11 30 -16 l30 -11 52 100 c44 83 56 99 73 95 97 -21 235 -63 235
-71 0 -5 -17 -51 -37 -103 -38 -96 -37 -108 7 -114 22 -3 27 5 62 92 20 52 38
99 41 104 3 10 277 -33 277 -43 0 -3 -11 -49 -25 -101 -14 -52 -25 -101 -25
-107 0 -8 13 -13 35 -13 31 0 35 3 44 38 47 181 45 177 71 175 160 -14 254
-23 258 -27 2 -3 -1 -42 -7 -87 -18 -133 -17 -139 23 -139 39 0 41 4 51 125
11 115 -4 105 159 105 l143 0 6 -182 c4 -99 7 -248 7 -330 l0 -148 41 0 42 0
-8 330 c-6 295 -6 330 8 330 9 0 73 5 142 11 70 6 129 8 133 5 3 -4 13 -53 21
-109 16 -101 16 -102 45 -105 46 -6 50 7 31 117 -9 55 -14 105 -10 111 3 5 17
10 29 10 13 0 75 9 137 20 62 11 114 18 115 17 1 -1 16 -49 33 -106 17 -58 32
-106 34 -107 1 -1 17 1 35 3 40 6 40 11 2 131 -17 52 -29 95 -28 97 2 1 65 17
140 36 l137 35 47 -104 c45 -98 49 -103 73 -97 41 10 43 18 15 81 -15 32 -35
78 -44 100 l-18 42 121 42 c67 24 127 44 132 47 6 2 34 -37 64 -87 29 -50 58
-93 63 -96 5 -3 22 -1 38 6 l29 12 -50 81 c-74 118 -73 116 -52 124 10 3 65
28 122 55 58 26 107 45 110 40 29 -43 135 -172 141 -172 4 0 17 8 29 18 l22
17 -66 82 c-36 46 -65 87 -65 91 0 5 24 22 53 37 28 16 76 44 106 63 l55 34
74 -81 c40 -45 79 -81 85 -81 7 0 21 7 32 15 18 15 16 19 -60 96 l-80 81 29
21 c16 12 58 43 92 70 35 26 67 47 73 47 5 0 46 -31 91 -69 80 -68 83 -69 106
-54 13 8 24 17 24 18 0 2 -39 36 -86 76 l-87 72 79 73 c43 40 83 73 87 74 4 0
48 -28 97 -62 75 -52 91 -59 104 -48 25 20 19 33 -27 62 -23 15 -63 42 -89 60
l-46 33 22 27 22 28 174 -81 c96 -45 362 -167 590 -271 465 -213 800 -367 815
-376 50 -26 -44 41 -1122 802 -139 98 -253 181 -253 185 0 4 7 16 15 29 l16
21 95 -47 c94 -46 96 -47 110 -27 14 19 11 22 -84 68 l-98 47 38 77 c22 43 41
79 43 82 2 2 45 -13 95 -33 49 -20 94 -36 99 -36 5 0 11 9 14 19 4 17 -9 25
-92 57 -53 20 -97 37 -98 38 -1 1 9 33 23 71 13 39 26 75 29 82 2 8 31 2 95
-18 91 -29 110 -30 110 -4 0 9 -31 24 -87 41 -49 14 -91 29 -96 33 -5 5 9 133
17 158 1 1 45 -9 99 -22 l98 -23 -3 21 c-2 16 -15 24 -58 34 -30 8 -72 19 -94
24 l-39 11 7 71 c4 39 8 73 11 75 4 4 124 -14 158 -24 12 -4 17 0 17 15 0 20
-14 25 -143 47 -44 7 -44 7 -50 92 l-5 64 61 -7 c34 -3 75 -9 90 -12 24 -4 28
-2 25 13 -3 19 -22 24 -139 39 l-46 6 -11 52 c-6 29 -14 61 -18 71 -7 18 -3
19 80 12 80 -6 87 -5 84 11 -3 15 -17 19 -85 23 -46 3 -87 10 -91 15 -5 6 -18
36 -30 68 l-21 57 80 0 c60 0 80 3 77 13 -3 8 -34 14 -89 17 l-84 5 -32 61
-33 61 78 7 c42 3 141 9 220 12 78 4 142 10 142 13 0 27 -44 28 -366 7 l-91
-6 -37 56 c-21 31 -35 58 -33 61 3 3 33 7 67 10 90 8 72 29 -22 25 l-76 -2
-41 49 c-22 27 -41 51 -41 54 0 3 21 9 48 13 26 3 54 10 62 15 29 15 -20 23
-81 13 l-59 -10 -50 51 -50 51 61 13 c49 10 58 15 49 26 -9 11 -21 11 -72 -1
-66 -16 -61 -17 -131 43 l-37 33 25 10 c15 6 32 10 38 10 7 0 19 5 27 10 29
19 -9 29 -53 14 -22 -8 -48 -14 -58 -14 -24 0 -123 70 -112 80 4 4 25 13 46
20 28 9 36 15 28 23 -8 8 -26 6 -66 -7 l-55 -17 -57 37 -57 36 43 23 c35 17
40 23 26 28 -9 4 -36 -2 -60 -12 l-44 -19 -60 31 c-34 18 -61 35 -61 38 0 3
17 13 37 23 27 13 33 20 23 26 -8 5 -30 0 -56 -13 l-44 -21 -61 29 -60 29 33
28 c30 25 31 27 11 28 -13 0 -36 -8 -54 -19 -28 -17 -69 -18 -69 -2 0 5 63 73
284 309 27 29 -4 16 -237 -98 -148 -71 -274 -130 -281 -130 -24 0 -26 14 -5
36 30 32 6 40 -34 12 -34 -24 -34 -24 -115 -1 l-54 15 22 23 c32 34 5 44 -29
11 l-28 -27 -62 15 c-35 8 -66 17 -69 20 -3 3 3 14 12 25 28 31 -2 37 -33 7
-28 -27 -29 -27 -95 -15 -54 10 -66 16 -60 28 3 9 8 22 11 29 10 23 -26 12
-43 -13 -16 -24 -20 -25 -78 -19 -71 8 -82 14 -67 43 10 18 9 21 -9 21 -12 0
-25 -10 -32 -26 -10 -22 -17 -25 -41 -20 -16 3 -47 6 -69 6 -39 0 -39 1 -33
30 5 24 3 30 -9 30 -9 0 -22 -11 -28 -25 -10 -23 -16 -25 -85 -25 -73 0 -73 0
-67 25 5 19 2 25 -10 25 -9 0 -21 -11 -26 -25 -9 -23 -14 -25 -81 -25 -71 0
-71 0 -67 25 4 19 1 25 -13 25 -11 0 -19 -9 -21 -22 -3 -21 -9 -23 -75 -26
l-73 -3 0 71 c0 63 -2 70 -20 70 -18 0 -20 -7 -20 -75z m1919 -112 c-41 -43
-158 -166 -259 -273 -102 -107 -221 -233 -266 -280 -44 -47 -208 -219 -363
-383 -312 -328 -294 -316 -332 -226 -23 52 -113 145 -168 174 -28 14 -31 19
-20 30 13 12 152 109 1064 748 204 143 377 266 385 273 8 8 19 14 24 14 6 0
-23 -35 -65 -77z m-1417 29 l36 -7 -25 -63 -25 -63 -137 7 c-148 7 -411 -7
-586 -31 -60 -9 -131 -18 -156 -22 l-46 -5 -27 57 c-14 32 -24 60 -22 62 8 9
274 44 421 57 167 14 510 19 567 8z m283 -23 c131 -16 285 -41 285 -48 0 -3
-24 -32 -53 -65 l-52 -58 -125 20 c-69 12 -156 24 -195 27 -38 3 -80 8 -93 11
-26 5 -25 12 9 92 l19 43 62 -6 c35 -4 99 -11 143 -16z m-1290 -101 c14 -29
25 -58 25 -63 0 -6 -28 -17 -62 -23 -35 -7 -130 -31 -211 -54 l-148 -41 -54
53 c-37 37 -51 56 -42 61 30 17 412 116 455 118 7 1 24 -23 37 -51z m1755 17
c58 -14 136 -35 174 -47 l70 -21 -103 -52 -103 -51 -121 33 c-66 18 -126 33
-133 33 -29 0 -21 21 27 79 34 41 57 60 68 57 9 -3 63 -17 121 -31z m-555 -60
c222 -30 555 -106 555 -126 0 -14 -31 -10 -120 15 -109 32 -302 71 -460 93
-180 25 -681 25 -865 -1 -331 -45 -629 -123 -884 -230 -59 -25 -115 -35 -96
-17 18 16 272 110 392 145 227 66 482 114 718 135 152 14 618 6 760 -14z m-65
-31 c153 -17 342 -53 475 -90 50 -14 91 -27 93 -29 2 -2 -85 -46 -193 -99
l-197 -96 -146 30 c-154 30 -345 50 -487 50 l-84 0 -27 88 c-15 48 -30 91 -34
95 -4 4 -19 -36 -33 -89 -14 -53 -27 -98 -29 -99 -2 -2 -57 -11 -123 -19 -146
-20 -335 -65 -474 -112 l-103 -35 -195 72 c-106 40 -190 76 -186 80 5 5 62 29
128 54 496 189 1073 260 1615 199z m-2259 -85 c283 -105 643 -239 844 -314
634 -235 803 -301 796 -308 -4 -4 -36 -12 -72 -18 -97 -15 -165 -36 -260 -81
l-86 -40 -464 268 c-399 230 -929 535 -994 572 -39 22 -5 11 236 -79z m637 18
l53 -54 -132 -52 c-144 -58 -134 -57 -260 -9 l-83 31 44 20 c91 39 296 116
310 117 9 0 39 -24 68 -53z m2911 -83 c84 -41 151 -78 147 -81 -3 -4 -54 -27
-114 -53 l-107 -46 -126 66 -127 65 61 68 c52 59 64 68 86 62 14 -3 95 -40
180 -81z m-1719 -461 c0 -2 -36 -21 -80 -43 l-80 -40 0 92 c0 51 -2 185 -5
298 l-6 205 85 -255 c47 -140 86 -256 86 -257z m1487 342 c803 -425 1086
-1165 698 -1828 -25 -42 -49 -77 -54 -77 -5 0 -19 8 -31 18 l-22 18 51 89 c60
106 103 212 133 333 18 71 22 116 23 247 0 185 -17 273 -86 434 -125 294 -417
585 -759 756 -88 44 -84 41 -75 54 9 16 9 16 122 -44z m-1208 4 c114 -15 285
-50 295 -60 15 -13 -1 -12 -137 15 -140 28 -310 46 -444 46 -64 0 -93 4 -93
12 0 13 248 5 379 -13z m-519 3 c0 -5 -56 -16 -125 -26 -144 -20 -323 -63
-444 -107 -46 -16 -88 -26 -93 -21 -9 9 177 72 307 103 73 17 295 55 343 58 6
1 12 -3 12 -7z m1643 -18 c29 -15 92 -51 140 -80 642 -391 871 -1021 582
-1597 -25 -48 -55 -102 -67 -121 l-23 -33 -306 216 -306 216 38 80 c63 130 82
226 76 369 -3 67 -7 130 -9 140 -3 18 16 23 227 56 l230 37 -115 6 c-63 4
-176 9 -251 13 l-136 6 -27 55 c-55 113 -160 235 -279 324 -45 34 -83 65 -85
70 -4 9 239 269 251 269 4 0 31 -12 60 -26z m593 -25 c80 -53 198 -141 269
-202 l39 -34 -89 -21 c-50 -11 -118 -26 -151 -33 l-62 -12 -74 64 c-40 36
-113 93 -161 128 -48 35 -86 65 -85 67 7 7 214 93 224 94 6 0 47 -23 90 -51z
m-3757 -16 l62 -58 -118 -79 -118 -78 -105 32 c-58 17 -107 34 -109 36 -3 2 4
11 15 19 39 31 289 185 300 185 6 0 39 -26 73 -57z m2071 17 c120 -19 219 -43
215 -50 -3 -4 -31 -1 -62 6 -99 23 -266 45 -415 54 l-143 9 170 -4 c94 -2 199
-9 235 -15z m-561 6 c-3 -3 -54 -12 -114 -21 -137 -20 -244 -45 -369 -85 -53
-17 -102 -29 -109 -27 -14 5 155 61 253 84 138 32 354 63 339 49z m601 -56
c63 -11 116 -23 119 -25 2 -3 -98 -55 -224 -115 -125 -61 -228 -110 -230 -108
-1 2 -23 66 -48 142 l-46 139 157 -6 c93 -3 203 -14 272 -27z m-610 13 c0 -9
-72 -276 -76 -281 -3 -4 -445 157 -453 164 -9 8 8 14 129 49 179 52 400 89
400 68z m-1417 -80 c-23 -8 -197 -135 -274 -199 -283 -235 -481 -552 -535
-854 -18 -102 -17 -290 2 -390 26 -142 92 -300 176 -423 l40 -59 -24 -16 c-12
-10 -27 -17 -33 -17 -16 0 -119 178 -154 266 -67 168 -75 216 -75 419 0 167 3
194 26 281 100 369 351 692 746 956 71 47 98 61 106 52 8 -8 8 -13 -1 -16z
m260 -214 l31 -26 -64 -59 c-134 -124 -202 -211 -266 -340 l-44 -91 -118 -17
c-236 -34 -356 -54 -334 -56 12 -2 25 -3 30 -4 4 -1 93 -6 199 -10 l191 -8 -5
-112 c-7 -146 11 -236 78 -375 28 -56 49 -104 47 -106 -2 -1 -129 -109 -283
-239 l-279 -237 -18 23 c-36 48 -103 174 -136 256 -93 231 -97 504 -11 750
108 308 352 599 687 818 l65 43 100 -92 c55 -51 113 -104 130 -118z m-657 109
c57 -17 104 -34 104 -37 0 -4 -24 -25 -53 -49 -30 -23 -96 -85 -148 -138 l-94
-96 -127 13 c-70 6 -133 16 -140 21 -10 6 12 33 82 100 104 99 246 218 262
218 5 0 57 -14 114 -32z m3282 -109 c82 -70 160 -161 210 -245 42 -72 48 -94
25 -94 -12 0 -32 27 -62 81 -60 107 -212 267 -320 335 -1 2 0 8 4 13 9 16 49
-9 143 -90z m1317 -149 c79 -103 171 -262 214 -373 34 -88 81 -247 81 -274 0
-7 -268 19 -404 39 -15 3 -23 22 -41 113 -39 195 -128 377 -271 552 -69 86
-73 93 -52 98 13 3 79 18 148 34 l125 29 75 -76 c42 -42 98 -106 125 -142z
m-1440 179 c65 -49 174 -160 215 -219 48 -71 83 -140 75 -148 -9 -9 -31 21
-74 97 -40 72 -151 194 -221 246 -28 20 -50 41 -50 46 0 15 13 10 55 -22z m28
-111 c56 -57 116 -128 134 -158 59 -101 75 -93 -163 -85 -115 4 -250 10 -301
14 l-92 6 152 163 c83 89 155 162 160 162 4 0 54 -46 110 -102z m-2561 -57
c-97 -95 -177 -206 -222 -307 -18 -38 -35 -64 -45 -64 -22 0 -19 12 24 98 57
114 129 204 260 325 90 84 75 39 -17 -52z m41 -23 c-90 -94 -152 -181 -194
-274 -17 -37 -36 -64 -44 -64 -20 0 19 89 82 183 55 84 199 237 221 237 9 0
-20 -36 -65 -82z m262 -90 c151 -139 155 -143 128 -151 -16 -4 -146 -25 -291
-46 -259 -37 -262 -38 -256 -17 11 35 45 98 84 156 34 51 166 200 176 200 3 0
74 -64 159 -142z m1250 98 c327 -88 431 -347 219 -545 -73 -69 -173 -121 -289
-153 -107 -28 -327 -31 -425 -4 -322 88 -436 328 -250 530 77 83 218 154 365
182 90 17 299 12 380 -10z m-2532 -72 c73 -9 134 -18 136 -20 3 -2 -5 -14 -16
-27 -44 -48 -129 -186 -175 -283 -56 -120 -93 -243 -111 -368 l-12 -90 -194
-43 c-106 -24 -195 -42 -197 -40 -6 6 36 194 61 273 33 101 120 282 180 376
61 94 173 238 186 238 5 0 69 -7 142 -16z m4246 -148 c-2 -2 -157 -27 -344
-56 -187 -28 -434 -67 -549 -84 l-210 -33 -74 53 c-49 35 -68 54 -56 55 10 0
276 15 589 33 627 37 650 38 644 32z m-2734 -89 l59 -53 -265 -13 c-145 -7
-415 -21 -598 -31 -184 -11 -336 -18 -338 -16 -1 1 190 31 425 66 235 35 474
71 532 80 58 10 110 18 116 19 6 0 37 -23 69 -52z m2420 6 c4 -10 10 -70 13
-134 6 -156 -14 -242 -90 -396 -23 -46 -30 -50 -47 -29 -8 10 -3 31 23 87 63
136 89 297 67 413 -6 32 -8 62 -5 67 9 15 31 10 39 -8z m-80 -10 c3 -10 9 -54
12 -98 7 -97 -15 -217 -58 -320 -39 -94 -45 -103 -60 -88 -9 9 -6 26 16 75 57
127 80 253 66 368 -5 36 -6 68 -4 73 7 12 21 8 28 -10z m-80 -63 c8 -66 1
-134 -21 -223 -20 -79 -61 -170 -75 -165 -20 7 -507 353 -503 357 6 6 520 88
561 90 31 1 31 0 38 -59z m-2181 -6 c10 -4 16 -18 16 -38 0 -54 52 -146 113
-203 l57 -52 -142 -99 c-79 -54 -267 -186 -418 -292 -151 -107 -446 -313 -655
-460 -209 -147 -569 -400 -800 -562 -941 -661 -1139 -799 -1120 -780 11 11
202 174 425 363 223 189 599 508 835 709 237 201 561 477 720 612 160 135 439
372 620 527 182 154 331 281 332 281 1 0 8 -3 17 -6z m-899 -207 c0 -141 20
-223 85 -343 35 -67 36 -71 19 -82 -16 -10 -22 -7 -44 26 -33 49 -80 171 -95
250 -13 62 -10 248 4 270 4 6 12 9 19 6 8 -3 12 -40 12 -127z m71 10 c0 -126
15 -190 70 -301 32 -65 35 -86 13 -86 -17 0 -88 162 -104 235 -24 112 -19 265
9 265 7 0 11 -36 12 -113z m404 92 c129 -6 236 -11 236 -12 3 -4 -468 -398
-480 -403 -13 -5 -47 59 -78 146 -20 55 -37 243 -25 273 5 12 18 15 59 11 29
-2 159 -9 288 -15z m2285 -514 c341 -197 692 -399 780 -450 88 -51 322 -186
520 -300 198 -114 581 -334 850 -490 270 -155 516 -297 548 -315 31 -17 57
-34 57 -36 0 -2 -24 7 -52 20 -65 29 -779 356 -1248 571 -63 29 -243 111 -400
183 -157 71 -445 203 -640 292 -195 90 -407 186 -470 215 -63 29 -254 117
-425 195 -170 78 -390 178 -488 223 -196 89 -203 98 -89 112 113 14 328 99
381 150 12 11 17 11 35 0 12 -7 300 -174 641 -370z m1612 334 l192 -22 7 -76
c12 -134 -13 -421 -40 -448 -5 -5 -355 98 -433 128 -21 8 -21 9 -7 56 22 72
44 228 44 316 0 75 1 77 23 73 12 -3 108 -15 214 -27z m-2774 -356 c4 -109 9
-349 12 -533 3 -184 8 -362 11 -395 3 -33 3 -57 0 -54 -6 6 -216 1038 -216
1061 0 11 159 114 181 117 3 1 9 -88 12 -196z m-2460 20 c4 -92 22 -181 58
-301 3 -9 -67 -43 -205 -102 -116 -49 -211 -88 -212 -87 -2 1 -13 50 -25 107
-16 77 -22 143 -23 247 0 77 2 144 6 149 7 6 353 90 384 93 7 1 13 -37 17
-106z m3030 -80 l321 -147 -82 -38 c-112 -52 -256 -100 -387 -131 -111 -26
-273 -53 -279 -46 -2 2 14 117 35 254 21 138 39 254 39 259 0 11 -14 17 353
-151z m-737 -118 l51 -255 -73 0 c-100 0 -289 26 -406 55 -107 27 -238 71
-251 84 -6 6 599 365 623 370 3 1 28 -114 56 -254z m3079 -58 c12 -5 10 -20
-16 -94 -29 -82 -132 -294 -164 -337 -15 -20 -31 -10 -351 219 l-71 51 39 64
c39 63 70 126 101 201 l15 37 216 -68 c119 -37 222 -70 231 -73z m-1935 -16
c0 -10 -152 -82 -245 -117 -174 -65 -319 -102 -508 -128 -88 -12 -98 -11 -95
3 2 11 25 18 88 27 216 28 452 97 634 183 92 43 126 52 126 32z m74 -27 c9 -3
16 -10 16 -14 0 -12 -166 -95 -279 -139 -170 -66 -324 -106 -523 -136 -130
-20 -148 -19 -148 3 0 16 14 20 98 31 231 28 492 104 688 201 131 64 126 62
148 54z m389 -180 c188 -86 359 -165 380 -176 l39 -19 -64 -50 c-241 -190
-567 -356 -893 -454 -714 -215 -1525 -196 -2158 51 -182 72 -512 257 -512 289
0 5 157 99 349 209 l349 199 41 -16 c254 -100 371 -133 566 -162 63 -9 176
-20 250 -24 l134 -6 50 -252 c28 -139 53 -253 56 -253 3 0 23 117 45 260 l39
260 30 0 c45 0 268 38 361 61 194 48 395 129 593 237 2 1 157 -68 345 -154z
m-2098 41 c127 -33 338 -65 435 -65 88 0 120 -7 120 -26 0 -15 -84 -13 -270 7
-169 19 -413 81 -541 138 -34 16 -38 20 -24 28 12 7 40 0 98 -23 45 -18 127
-45 182 -59z m-1707 51 c11 -30 79 -148 125 -217 l17 -26 -186 -157 c-102 -87
-187 -156 -189 -154 -15 17 -99 157 -125 208 -46 91 -82 192 -73 201 9 9 393
176 408 178 6 1 16 -14 23 -33z m1471 -45 c203 -81 508 -141 724 -141 42 0 77
-2 77 -4 0 -2 3 -11 6 -20 5 -14 -6 -16 -85 -16 -245 0 -548 61 -773 155 -86
36 -101 48 -75 58 22 9 28 8 126 -32z m2839 -279 l33 -18 -88 -71 c-349 -280
-834 -491 -1343 -583 -381 -69 -814 -78 -1172 -25 -471 70 -899 233 -1201 457
l-69 51 33 18 c19 9 39 14 44 11 6 -4 44 -30 85 -58 321 -218 720 -359 1195
-420 174 -23 631 -26 800 -6 613 73 1161 279 1535 577 58 46 107 83 110 84 3
0 20 -8 38 -17z m324 -148 c128 -59 235 -109 237 -111 16 -13 -274 -273 -401
-360 l-69 -47 -179 179 c-99 99 -180 182 -180 185 1 3 42 33 93 67 51 34 128
91 171 127 43 36 83 66 87 66 5 0 114 -48 241 -106z m-3956 -240 l94 -56 -48
-57 c-27 -31 -101 -118 -165 -193 l-117 -138 -87 56 c-182 117 -383 288 -364
307 6 6 106 65 223 132 l213 122 79 -59 c43 -32 121 -84 172 -114z m3664 -315
c1 -18 -341 -195 -509 -264 -106 -43 -306 -115 -321 -115 -4 0 -10 8 -13 18
-3 9 -49 111 -102 226 -53 114 -95 209 -93 211 2 1 48 17 103 35 138 45 361
140 480 205 l100 55 177 -183 c97 -100 177 -185 178 -188z m-3439 197 c146
-68 413 -156 571 -190 25 -6 27 -9 17 -34 -37 -99 -161 -410 -169 -422 -20
-31 -375 79 -642 200 -73 33 -144 69 -156 78 l-24 18 159 191 c87 106 161 192
164 192 3 1 39 -14 80 -33z m2432 -364 c53 -121 97 -223 97 -229 0 -13 -290
-84 -455 -112 -266 -45 -397 -55 -725 -56 -193 0 -357 5 -425 13 -154 18 -418
62 -428 71 -11 11 166 467 180 464 235 -46 597 -69 854 -54 260 15 580 63 734
110 69 21 63 28 168 -207z"/>
<path d="M5118 7152 c-9 -2 -15 -9 -13 -15 3 -7 -2 -21 -10 -31 -14 -19 -15
-19 -35 -1 -11 10 -20 24 -20 32 0 8 -11 13 -28 13 l-29 0 44 -47 43 -47 28
34 29 34 18 -27 c22 -34 38 -34 60 -1 9 14 25 34 36 45 19 19 19 19 -18 18
-21 -1 -30 -3 -20 -6 21 -6 21 -12 -2 -42 l-18 -24 -24 34 c-15 22 -31 33 -41
31z"/>
<path d="M4785 7130 c-11 -5 -14 -9 -6 -9 9 -1 12 -11 9 -36 -4 -34 -3 -35 32
-34 19 1 27 3 18 6 -24 6 -23 22 3 49 l21 23 -21 -6 c-12 -3 -21 -1 -21 6 0
13 -7 13 -35 1z"/>
<path d="M4889 7129 c20 -8 23 -14 18 -44 -5 -32 -4 -35 18 -33 21 2 23 6 18
33 -8 51 -11 55 -45 54 -31 0 -32 -1 -9 -10z"/>
<path d="M5375 6880 c-10 -17 5 -30 34 -30 29 0 57 21 44 33 -10 11 -71 8 -78
-3z"/>
<path d="M4551 6827 c-14 -18 -4 -27 28 -27 33 0 56 14 47 29 -10 15 -61 14
-75 -2z"/>
<path d="M6783 6293 c-7 -2 -13 -11 -13 -18 0 -33 85 -49 97 -19 11 30 -43 54
-84 37z"/>
<path d="M7031 5646 c-28 -33 38 -79 84 -58 29 13 32 34 9 56 -19 20 -77 21
-93 2z"/>
<path d="M3210 6082 c-28 -23 -19 -42 19 -42 36 0 66 22 58 44 -8 21 -49 20
-77 -2z"/>
<path d="M2986 5429 c-21 -17 -24 -24 -16 -40 14 -26 53 -24 86 4 55 47 -12
82 -70 36z"/>
<path d="M7653 6133 c4 -6 -3 -13 -16 -17 -36 -10 -165 -7 -172 4 -16 26 -24
6 -9 -22 22 -43 21 -43 39 -24 9 9 27 16 39 16 44 0 130 -20 154 -36 37 -25
11 -34 -95 -34 -51 0 -93 -4 -93 -8 0 -5 7 -17 15 -28 11 -14 17 -16 23 -7 5
7 47 15 105 19 54 4 100 11 103 16 10 16 -27 48 -70 61 l-41 12 40 5 40 5 -34
24 c-19 14 -32 20 -28 14z"/>
<path d="M7592 5945 c-41 -18 -50 -40 -26 -66 24 -27 92 -62 107 -55 8 3 8 5
-1 5 -25 2 -72 42 -72 61 0 22 20 34 67 43 29 6 32 3 60 -48 29 -57 45 -65 84
-45 48 26 -5 91 -91 109 -66 14 -88 13 -128 -4z m181 -26 c30 -16 38 -31 25
-46 -19 -23 -44 -14 -61 22 -15 31 -15 35 -1 35 8 0 25 -5 37 -11z"/>
<path d="M4967 6040 c-143 -25 -237 -103 -237 -196 0 -56 33 -102 100 -139 47
-25 69 -30 146 -33 108 -5 178 12 250 60 60 41 99 110 89 159 -23 103 -193
176 -348 149z m197 -41 c119 -44 149 -142 69 -222 -52 -53 -130 -80 -228 -81
-96 0 -145 15 -196 61 -46 41 -57 84 -36 135 44 105 247 161 391 107z"/>
<path d="M4955 5991 c-88 -22 -155 -87 -155 -151 0 -34 57 -87 112 -106 106
-35 254 1 304 75 33 48 31 83 -7 126 -48 54 -159 79 -254 56z"/>
<path d="M2466 5881 c-22 -41 -20 -44 9 -25 22 15 31 15 82 2 l58 -14 -75 -19
c-41 -10 -83 -19 -93 -20 -20 -1 -37 -21 -37 -43 0 -10 4 -9 16 2 18 19 40 20
102 4 l46 -11 -84 -23 c-46 -12 -89 -20 -95 -18 -12 5 -40 -45 -30 -54 2 -3
13 2 22 10 10 8 69 28 131 44 61 16 112 32 112 35 0 4 -23 12 -50 19 -28 7
-52 16 -55 20 -3 4 29 16 70 25 41 9 75 20 75 25 0 4 -35 16 -77 26 -43 10
-86 24 -95 32 -15 12 -18 10 -32 -17z"/>
<path d="M2426 5616 c-63 -42 -101 -51 -90 -22 6 15 47 36 70 36 8 0 13 4 10
9 -11 17 -70 -4 -85 -31 -13 -22 -13 -29 -2 -42 21 -25 43 -19 115 28 70 46
101 52 101 20 0 -17 -20 -32 -70 -50 -16 -7 -14 -9 15 -12 28 -3 39 2 57 23
25 29 29 55 11 73 -22 22 -64 12 -132 -32z"/>
<path d="M5670 4340 c-11 -11 -20 -25 -20 -31 0 -44 63 -79 106 -57 41 20 49
54 19 84 -30 30 -77 32 -105 4z"/>
<path d="M4341 4276 c-29 -31 -22 -72 15 -86 36 -14 91 11 100 45 15 59 -70
89 -115 41z"/>
<path d="M5194 3606 c-62 -28 -88 -78 -68 -130 3 -9 40 -35 80 -58 74 -42 94
-68 80 -103 -10 -26 -71 -19 -95 11 -12 15 -21 33 -21 40 0 8 -7 14 -16 14
-12 0 -14 -10 -12 -47 3 -42 6 -47 33 -55 70 -19 165 26 165 79 0 39 -16 59
-77 93 -78 43 -93 58 -93 90 0 72 110 72 140 0 19 -46 39 -39 33 13 -3 23 -9
45 -13 50 -14 15 -105 18 -136 3z"/>
<path d="M4890 3595 c-36 -17 -110 -82 -110 -98 0 -5 16 3 36 18 96 74 196 39
211 -73 l5 -39 -68 -6 c-38 -4 -93 -7 -121 -7 -47 0 -53 -2 -53 -21 0 -51 63
-109 118 -109 86 0 172 99 172 197 0 108 -97 179 -190 138z m133 -235 c-13
-51 -77 -83 -128 -64 -13 5 -45 53 -45 68 0 6 51 12 122 14 51 2 56 0 51 -18z"/>
<path d="M2890 7191 c0 -5 -36 -32 -80 -61 -44 -29 -79 -55 -76 -57 3 -3 69
11 151 34 11 3 -4 -12 -34 -33 -29 -21 -49 -39 -45 -41 5 -1 68 12 139 30 114
29 127 35 108 45 -16 9 -22 9 -26 -2 -5 -12 -135 -51 -144 -43 -2 2 21 21 52
42 37 26 51 41 43 46 -7 5 -20 1 -29 -7 -17 -15 -127 -49 -135 -41 -2 2 21 19
51 38 58 36 63 44 40 53 -8 3 -15 2 -15 -3z"/>
<path d="M9550 3464 c0 -3 11 -15 25 -26 14 -11 25 -25 25 -32 0 -17 -119
-279 -134 -294 -9 -10 -19 -10 -41 -2 -15 6 -30 8 -33 5 -7 -7 -18 0 174 -113
94 -56 174 -108 177 -117 10 -25 23 -18 68 36 50 60 40 80 -23 47 -34 -18 -44
-19 -86 -8 -40 10 -152 65 -152 75 0 3 15 39 49 118 l21 49 84 -46 c89 -49 96
-51 96 -37 0 5 -20 21 -44 35 -59 34 -96 80 -96 118 0 30 27 98 39 98 4 0 32
-16 63 -35 62 -39 89 -73 98 -125 8 -54 33 -50 54 9 17 48 15 78 -5 65 -5 -3
-86 38 -180 90 -176 99 -179 100 -179 90z"/>
<path d="M842 3049 c-59 -30 -86 -69 -132 -194 -50 -139 -102 -195 -180 -195
-72 0 -58 93 27 171 66 60 42 64 -42 6 l-75 -51 0 -49 c0 -40 5 -53 29 -78 25
-24 38 -29 78 -29 108 1 184 68 228 201 37 111 58 151 95 183 42 35 97 36 106
2 7 -29 -14 -71 -55 -110 -32 -31 -39 -46 -21 -46 21 0 130 84 130 100 0 94
-91 137 -188 89z"/>
</g>
</svg>
