<svg xmlns="http://www.w3.org/2000/svg" xmlns:xlink="http://www.w3.org/1999/xlink" viewBox="0 0 77 71" fill="#fff" fill-rule="evenodd" stroke="#000" stroke-linecap="round" stroke-linejoin="round"><use xlink:href="#A" x=".5" y=".5"/><symbol id="A" overflow="visible"><g stroke="none" fill-rule="nonzero"><path d="M29.865 42.945H3.66c-2.22 0-3.66-1.38-3.66-3.6l.015-35.76C.015 1.395 1.455 0 3.63 0h52.53c2.19 0 3.63 1.395 3.63 3.585v35.76c0 2.235-1.425 3.615-3.66 3.615l-26.265-.015zm0-3.645h25.2c1.08 0 1.08 0 1.08-1.065V4.74c0-1.095 0-1.095-1.11-1.095H4.77c-1.11 0-1.11 0-1.11 1.095v33.42c0 1.125 0 1.125 1.14 1.125l25.065.015zm.03 18.75H17.34c-.24 0-.495 0-.735-.03-.99-.165-1.665-.975-1.62-1.905.06-.99.825-1.695 1.875-1.71h3.48c2.385-.015 3.99-1.62 4.005-3.99V45.87c-.015-.6.18-.84.795-.84h9.555c.57 0 .795.195.78.78v4.605c.015 2.325 1.62 3.945 3.945 3.975h3.405c1.17.015 1.995.75 1.995 1.785 0 1.05-.81 1.83-1.965 1.845h-8.01l-4.95.03z" fill="#b40201"/><path d="M29.865 39.3H4.8c-1.14 0-1.14 0-1.14-1.125V4.755c0-1.095 0-1.095 1.11-1.095h50.265c1.11 0 1.11 0 1.11 1.095V38.25c0 1.065 0 1.065-1.08 1.065l-25.2-.015z"/><path d="M67.245 51.39c-.6-.48-1.11-1.05-1.695-1.545-.615-.51-1.23-1.065-1.92-1.455-1.545-.87-3.12-.6-4.605.195-.81.42-1.53 1.005-2.295 1.515-.3.21-.57.525-1.02.24-1.29-.855-2.76-1.185-4.23-1.545-1.005-.24-2.01-.615-2.925-1.125-.87-.48-1.065-1.38-.705-2.31l.66-1.53c.045-.12.105-.225.165-.315-.42-.105-.84-.255-1.245-.285.015.105-.03.255-.12.465l-.375.84c-.75 1.95-.18 3.69 1.53 4.425.795.345 1.665.57 2.49.84l3.75 1.245c.48.165.57.435.27.915-.6.93-1.2 1.875-1.65 2.88-1.035 2.325-.75 4.02.975 5.58l2.73 2.55c.315.3.585.315.96.105 2.79-1.56 5.235-3.54 7.17-6.105 1.02-1.35 1.785-2.85 2.385-4.44.165-.465.12-.795-.3-1.14zm-4.635 6.27c-.48.36-1.065.33-1.59-.105l-2.94-2.58-1.785-1.62c-.36-.36-.48-.825-.225-1.32.225-.465.615-.66 1.245-.72.225.12.57.24.84.465l4.335 3.78a2.16 2.16 0 0 1 .555.72c.21.495 0 1.065-.435 1.38zm-3.75 7.065c4.74-2.775 8.415-6.285 10.485-11.385.495.45.93.795 1.32 1.185.975.975 2.07 1.86 2.88 2.955 3.165 4.29 1.035 11.085-4.95 12.18-1.92.345-3.72-.03-5.25-1.11-1.56-1.095-2.91-2.46-4.485-3.825z" fill="#b40201"/><path d="M56.07 49.92c.225.12.57.24.84.465l4.335 3.78a2.16 2.16 0 0 1 .555.72c.225.495.015 1.065-.42 1.38-.48.36-1.065.33-1.59-.105l-2.94-2.58-1.785-1.62c-.36-.36-.48-.825-.225-1.32.225-.465.6-.66 1.23-.72z"/><path d="M22.98 37.05c-.525.03-.75-.225-.75-.75v-9.675c0-.48.165-.735.705-.735.51 0 .78.165.78.72l.015 2.745c.09 2.04 1.2 2.61 2.91 1.485l5.67-3.87c.93-.645 1.065-1.065.675-2.13-.135-.375.03-.555.27-.75l4.935-3.855 1.575-1.29-.18-.285c-.255.135-.525.24-.75.42l-5.79 4.5c-.36.285-.66.405-1.125.21-.795-.315-1.47.105-2.115.525L27.93 25.59c-.135.09-.3.165-.51.285l-.15-1.14c-.195-2.16-1.545-3.315-3.315-3.93-1.515-.525-3.09-.48-4.665-.435-.225.015-.525.21-.66.405l-1.365 2.235c-.135.225-.315.45-.525.75l-.465-.6-1.425-2.34c-.135-.21-.465-.45-.69-.45-1.365.045-2.745.03-4.095.27-2.4.42-3.66 2.175-3.735 4.59-.105 3.63-.045 7.275-.045 10.92 0 .765-.915.87-.915.87l-.06 1.74 18.03-.21v-1.515c-.12.015-.24.015-.36.015zm-11.85-5.475h-.03l.015 4.71c.015.57-.21.765-.78.765-.6 0-.735-.315-.735-.825V29.19v-2.565c-.015-.54.285-.645.765-.645.465 0 .765.09.765.645v4.95zm22.11-9.315c-.405-1.23-.42-2.4-.285-3.57.51-4.56 4.17-8.34 9.255-8.79.615-.06.705.285.705.75v7.635c0 .3.015.6 0 .9-.015.51.21.705.72.69h5.73 2.865c.495 0 .66.195.615.69-.495 5.25-4.41 9.165-9.69 9.315-3.675.105-6.615-1.5-8.67-4.59-.465-.69-.405-.75.255-1.245l5.355-4.185c.66-.525.765-1.11.39-1.665-.42-.615-1.095-.705-1.77-.195l-4.245 3.285c-.39.33-.78.63-1.23.975zm-11.985-7.17a4.66 4.66 0 0 1-4.71 4.665c-2.655-.015-4.68-2.055-4.665-4.695.015-2.625 2.1-4.71 4.695-4.71 2.565.015 4.68 2.16 4.68 4.74zm29.865 3.45c-1.245 0-2.505.015-3.75-.015-.21 0-.435-.135-.645-.21.09-.225.12-.51.27-.675l5.115-5.4c.45-.465.645-.45 1.05.06 1.275 1.62 2.1 3.435 2.385 5.49.075.54-.12.735-.63.735l-3.795.015zm-3.105-.825c.27.075.36.135.45.135h5.775c.42 0 .54-.24.465-.63a9.97 9.97 0 0 0-1.635-3.795c-.42-.585-.495-.585-.99-.075l-3.03 3.195c-.33.345-.63.72-1.035 1.17zm-3.51-5.07v-3.51c0-.705.165-.825.87-.72 1.8.255 3.435.945 4.92 1.98.39.27.495.555.135.915l-5.07 5.34c-.135.135-.45.27-.54.21-.165-.105-.285-.375-.285-.585-.045-1.215-.03-2.415-.03-3.63zm.825 2.685c.06.03.135.045.195.075l3.96-4.17c.255-.27.09-.495-.18-.615-1.095-.465-2.175-.96-3.285-1.35-.63-.225-.765-.06-.765.615v4.89c-.015.18.045.36.075.555z" fill="#b40201"/></g></symbol></svg>